<svg width="80" height="133" viewBox="0 0 80 133" fill="none" xmlns="http://www.w3.org/2000/svg">
<path d="M37.1679 110.05C36.8718 107.343 38.9736 104.962 41.1407 103.338C43.3079 101.714 45.8914 100.36 47.2635 97.9979C49.4779 94.1688 48.0723 88.5788 51.3295 85.5931C53.2517 83.8436 56.2648 83.6005 58.0197 81.676C58.8578 80.5919 59.4893 79.3627 59.8825 78.05C62.4089 71.5202 66.6427 65.7887 72.1415 61.4546C71.5832 67.5221 69.3999 73.327 65.8213 78.2586C64.3932 80.229 62.7159 82.1038 61.9943 84.4361C60.8277 88.2104 62.3945 92.5103 60.891 96.1666C59.1723 100.348 53.8754 102.542 52.9902 106.972C52.2407 110.724 55.0495 114.522 54.2519 118.258C53.8179 119.835 53.0151 121.287 51.9097 122.493C48.2583 126.918 43.5028 129.642 37.0077 128.578L29.0027 127.696L37.1679 110.05Z" fill="#92E3A9"/>
<g opacity="0.3">
<path d="M37.1679 110.05C36.8718 107.343 38.9736 104.962 41.1407 103.338C43.3079 101.714 45.8914 100.36 47.2635 97.9979C49.4779 94.1688 48.0723 88.5788 51.3295 85.5931C53.2517 83.8436 56.2648 83.6005 58.0197 81.676C58.8578 80.5919 59.4893 79.3627 59.8825 78.05C62.4089 71.5202 66.6427 65.7887 72.1415 61.4546C71.5832 67.5221 69.3999 73.327 65.8213 78.2586C64.3932 80.229 62.7159 82.1038 61.9943 84.4361C60.8277 88.2104 62.3945 92.5103 60.891 96.1666C59.1723 100.348 53.8754 102.542 52.9902 106.972C52.2407 110.724 55.0495 114.522 54.2519 118.258C53.8179 119.835 53.0151 121.287 51.9097 122.493C48.2583 126.918 43.5028 129.642 37.0077 128.578L29.0027 127.696L37.1679 110.05Z" fill="black"/>
</g>
<path d="M27.3481 127.685C26.6025 127.687 25.862 127.563 25.1581 127.317C24.2964 127.056 23.4621 126.712 22.6667 126.29C21.5705 125.718 20.5771 124.967 19.7272 124.069C19.2155 123.52 18.8511 122.851 18.6677 122.123C18.537 121.316 18.5266 120.495 18.6367 119.685C18.7497 118.823 18.8143 117.956 18.8302 117.087C18.7969 116.15 18.5836 115.229 18.2018 114.373C17.5034 112.588 16.17 110.795 16.0006 108.479C15.8313 106.163 16.5177 103.866 17.2294 101.532C17.9411 99.1987 18.6947 96.6387 18.1443 94.0166C17.5939 91.3945 16.2376 88.9014 15.7727 85.9581C15.3079 83.0148 16.1651 80.0048 16.4311 76.9622C16.6032 75.4276 16.4787 73.8742 16.0644 72.3866C15.6296 70.8814 14.9262 69.4193 14.4517 67.8379C13.4631 64.6695 13.7196 61.1913 13.8434 57.7955C13.9004 56.0969 13.9615 54.3686 14.0141 52.629C14.148 50.8858 14.1033 49.1336 13.8806 47.3995C13.5853 45.6397 13.1894 43.8983 12.695 42.1837C12.4334 41.2973 12.2501 40.3896 12.1472 39.4711C12.1309 38.5095 12.2151 37.6226 12.2851 36.6933C12.4683 34.8403 12.8105 33.0066 13.3079 31.2123C13.7945 29.4024 14.3972 27.629 14.864 25.8163L14.9085 25.4994L15.0096 25.14L15.3141 25.3444C16.8948 26.4436 18.1981 27.8956 19.1209 29.5854C20.0121 31.2304 20.6619 32.995 21.0504 34.825C21.6891 38.3889 22.0092 42.0025 22.0069 45.6232C22.0096 49.0773 22.6403 52.5022 23.8684 55.7306C24.5295 57.2777 25.3955 58.7324 26.1216 60.2482C26.917 61.7417 27.3746 63.3918 27.4619 65.0817C27.4429 68.5226 25.1466 71.2091 25.1026 74.2526C25.0731 75.7458 25.3604 77.2282 25.9455 78.6023C26.4888 79.9813 27.1636 81.2879 27.7987 82.589C28.4529 83.8678 28.9885 85.2039 29.3987 86.5805C29.7825 87.9113 29.9293 89.2992 29.8323 90.6808C29.6419 93.4007 28.8881 95.8901 28.7579 98.3256C28.6569 100.654 29.0164 102.98 29.8157 105.169C30.5276 107.289 31.2701 109.191 31.9475 111.053C32.2721 111.978 32.5697 112.878 32.7881 113.767C32.9905 114.626 33.1006 115.505 33.1165 116.388C33.1271 117.926 32.9119 119.458 32.4777 120.933C31.9648 123.011 30.884 124.904 29.3562 126.402C29.1258 126.626 28.8743 126.828 28.6052 127.003C28.4236 127.149 28.2266 127.273 28.0177 127.375C27.69 127.551 27.5177 127.628 27.5177 127.628C28.1486 127.256 28.7408 126.822 29.2853 126.332C30.7563 124.819 31.7918 122.938 32.2824 120.886C32.6802 119.421 32.8691 117.908 32.8436 116.39C32.8128 115.526 32.6967 114.668 32.4969 113.827C32.2576 112.918 31.9724 112.022 31.6423 111.142C30.9918 109.303 30.1516 107.378 29.4397 105.258C28.6431 103.03 28.289 100.669 28.3972 98.3052C28.5556 95.813 29.291 93.311 29.4716 90.6604C29.5793 89.3138 29.4483 87.9587 29.0849 86.6576C28.676 85.3082 28.1433 83.9995 27.4936 82.7481C26.8585 81.447 26.1738 80.139 25.6148 78.7275C25.0028 77.3012 24.6995 75.7615 24.7249 74.2097C24.8067 70.9695 27.0859 68.2603 27.022 65.0502C26.9409 63.4339 26.5042 61.8554 25.743 60.4272C25.0339 58.934 24.1368 57.4851 23.4714 55.897C22.2173 52.6117 21.5679 49.1266 21.5544 45.6101C21.3851 42.0721 21.4292 38.453 20.6052 34.9038C20.2298 33.1232 19.6005 31.4057 18.7367 29.8041C17.8642 28.19 16.6331 26.7975 15.1382 25.7337L15.5338 25.5772C15.5185 25.6861 15.5032 25.7951 15.4879 25.904C15.0183 27.7365 14.4142 29.5198 13.9417 31.3013C13.4195 33.0933 13.0569 34.928 12.8581 36.7839C12.7824 37.6821 12.7011 38.6199 12.7115 39.4797C12.8223 40.3618 13.0001 41.2341 13.2435 42.0892C13.7459 43.8202 14.1461 45.5792 14.442 47.3572C14.6733 49.1176 14.7177 50.8976 14.5743 52.6673C14.5117 54.4055 14.4605 56.1352 14.3923 57.8424C14.2869 61.2509 14.0442 64.63 15.0214 67.7362C15.4817 69.2752 16.1851 70.7374 16.6327 72.2948C17.0505 73.836 17.1675 75.4433 16.9772 77.0288C16.7028 80.1308 15.8652 83.0729 16.2931 85.9201C16.721 88.7674 18.1422 91.2292 18.6363 93.9645C19.1304 96.6999 18.4166 99.3362 17.6865 101.657C16.9563 103.978 16.2191 106.278 16.4249 108.478C16.6307 110.678 17.8849 112.46 18.5665 114.293C18.9518 115.178 19.161 116.13 19.1824 117.096C19.1567 117.977 19.0837 118.857 18.9635 119.731C18.8508 120.515 18.8512 121.31 18.9647 122.094C19.1359 122.785 19.4766 123.423 19.956 123.95C20.7799 124.843 21.7459 125.593 22.8149 126.17C23.5979 126.603 24.4197 126.962 25.2696 127.242C25.789 127.413 26.3213 127.542 26.8615 127.627L27.3481 127.685Z" fill="#263238"/>
<path d="M15.9514 30.1498C15.9677 30.2348 15.9793 30.3207 15.9859 30.4071L16.064 31.1452C16.1234 31.7998 16.1694 32.7656 16.2995 33.9957C16.4296 35.2258 16.9349 36.66 17.3462 38.4043C17.8017 40.3602 18.1573 42.3381 18.4118 44.3302C18.7067 46.5428 18.8989 48.9833 19.0986 51.5864C19.1839 54.3575 19.6581 57.1028 20.5073 59.7419C20.9686 61.1296 21.5163 62.5496 21.9186 64.0704C22.2799 65.6242 22.4395 67.218 22.3932 68.8126C22.3242 72.112 22.4265 75.4128 22.6999 78.7015L24.4869 97.7456C25.0786 103.595 25.6195 108.871 26.0652 113.317C26.5109 117.762 26.8427 121.293 27.0846 123.811C27.1878 125.017 27.2748 125.978 27.3386 126.674L27.3856 127.418C27.383 127.501 27.3713 127.584 27.3508 127.665C27.3205 127.585 27.3017 127.501 27.2951 127.415L27.1873 126.673C27.1023 125.984 26.9941 125.03 26.84 123.827C26.5571 121.313 26.1601 117.743 25.6565 113.35C25.153 108.957 24.6078 103.64 23.9751 97.7948C23.3424 91.9499 22.7734 85.508 22.123 78.7113C21.8415 75.4098 21.741 72.0953 21.8218 68.7828C21.8622 67.2308 21.7105 65.6797 21.3701 64.165C21.0132 62.6808 20.474 61.2721 20.014 59.8745C19.1702 57.1947 18.7051 54.4102 18.6319 51.6016C18.4549 48.9815 18.2811 46.5537 18.0144 44.3552C17.7478 42.1567 17.4011 40.1691 17.028 38.4403C16.655 36.7116 16.178 35.2914 16.0676 33.9934C15.9572 32.6954 15.9537 31.786 15.9154 31.1243L15.8982 30.3847C15.9064 30.3045 15.9242 30.2257 15.9514 30.1498Z" fill="#263238"/>
<path d="M25.9815 127.493C21.2224 123.633 21.1087 114.024 24.1103 108.69C27.1118 103.355 31.6566 98.7532 33.1308 92.7903C34.2561 88.2326 33.4613 83.2535 35.1767 78.8797C37.5293 72.9898 44.1815 69.128 45.0355 62.8356C45.531 59.3103 44.0181 55.7046 44.6621 52.2002C45.4967 47.9146 49.3126 44.9771 51.9167 41.4653C55.911 36.1091 57.1272 29.2516 59.1535 22.8816C61.1797 16.5117 64.696 9.88654 70.9556 7.52472C70.9967 13.1956 71.8982 17.2001 70.3424 24.6056C69.7856 27.2741 65.903 31.9795 64.6067 37.826C63.8326 41.3223 63.1475 44.8311 62.413 48.333C61.6785 51.8348 60.9635 55.198 59.2621 58.251C57.9253 60.5775 56.1069 62.5941 55.0363 65.0389C53.0074 69.6312 53.9885 75.0808 52.206 79.7885C50.7074 83.7687 47.3416 86.8806 46.1502 90.9746C44.4761 96.7074 47.3804 103.346 44.6149 108.653C43.2364 111.277 40.6512 113.145 39.5516 115.939C38.7249 118.085 38.9086 120.514 38.1399 122.678C36.8821 126.167 29.6214 127.964 25.9922 127.202" fill="#92E3A9"/>
<path d="M68.7343 12.8373C68.7305 12.9442 68.7156 13.0504 68.6897 13.1542L68.4429 14.0486C68.2014 14.8326 67.8971 15.9915 67.4069 17.4677C66.9167 18.9438 65.8513 20.5613 64.9167 22.5404C63.9822 24.5196 62.9451 26.7975 61.9355 29.3821C60.926 31.9668 60.026 34.8496 59.0346 37.9518C58.1126 41.3012 56.7276 44.5054 54.9197 47.4718C53.9445 49.0211 52.8789 50.5679 52.0059 52.2528C51.1419 53.9881 50.4971 55.8243 50.0865 57.7188C49.2055 61.7417 48.1046 65.7133 46.7887 69.6157C43.9911 77.594 41.3284 85.1873 38.9117 92.1083C36.4949 99.0293 34.1655 105.185 32.3063 110.367C30.4471 115.548 28.8684 119.739 27.7989 122.679C27.2675 124.113 26.8486 125.225 26.5421 126.017C26.4001 126.381 26.2891 126.668 26.2075 126.889C26.1697 126.986 26.126 127.081 26.0767 127.173C26.0777 127.069 26.0922 126.966 26.1198 126.866C26.2027 126.636 26.294 126.345 26.4162 125.979L27.5767 122.608L31.9312 110.233C33.796 105.012 36.0023 98.7985 38.4657 91.9042C40.9292 85.01 43.5353 77.3885 46.3017 69.4159C47.6068 65.5242 48.7057 61.5662 49.594 57.5587C50.0226 55.6253 50.6861 53.7517 51.5697 51.9794C52.4667 50.2676 53.5436 48.7123 54.5174 47.1729C56.3208 44.2285 57.7089 41.0492 58.6424 37.725C59.6423 34.6341 60.5931 31.7484 61.6027 29.1637C62.4983 26.8329 63.5103 24.5485 64.6348 22.3191C65.6004 20.3341 66.6617 18.7464 67.1987 17.297C67.7356 15.8476 68.0498 14.6901 68.3195 13.9202C68.4417 13.5536 68.5429 13.2649 68.6245 13.0441C68.706 12.8233 68.7343 12.8373 68.7343 12.8373Z" fill="#263238"/>
</svg>
