<svg width="180" height="327" viewBox="0 0 180 327" fill="none" xmlns="http://www.w3.org/2000/svg">
<path d="M4.95967 312.512L3.66968 319.862L4.75968 320.102C9.63968 321.102 29.6297 325.012 33.0697 324.522C36.9097 323.972 22.2897 318.222 22.2897 318.222L22.7497 315.112L4.95967 312.512Z" fill="#92E3A9"/>
<g opacity="0.5">
<path d="M10.1497 320.682C10.1205 319.137 9.51822 317.658 8.45969 316.532C7.42395 315.397 5.99224 314.702 4.45969 314.592L3.67969 319.592L10.1497 320.682Z" fill="white"/>
</g>
<g opacity="0.5">
<path d="M29.3596 321.292C29.3596 321.292 34.4296 323.652 33.6396 324.422C32.8496 325.192 12.4896 322.042 3.63965 319.862L3.72965 319.472L27.4296 323.352C27.4296 323.352 28.3596 321.182 29.3596 321.292Z" fill="white"/>
</g>
<path d="M3.47949 319.412C3.57521 319.452 3.67621 319.479 3.77949 319.492L4.64949 319.682L7.86949 320.322C10.5895 320.852 14.3595 321.522 18.5295 322.172C22.6995 322.822 26.5295 323.322 29.2595 323.652L32.5195 324.022L33.4095 324.112H33.7195L33.4095 324.052L32.5295 323.932L29.2795 323.492C26.5295 323.122 22.7395 322.592 18.5695 321.942C14.3995 321.292 10.5695 320.642 7.89949 320.162L4.66949 319.592L3.78949 319.442L3.47949 319.412Z" fill="#263238"/>
<path d="M27.4097 323.622C27.64 323.109 27.925 322.623 28.2597 322.172C28.6479 321.768 29.0806 321.409 29.5497 321.102C28.9639 321.218 28.443 321.55 28.0897 322.032C27.6796 322.463 27.4382 323.027 27.4097 323.622Z" fill="#263238"/>
<path d="M22.5696 320.142C22.5696 320.142 22.9096 319.912 23.2396 319.542C23.5696 319.172 23.7796 318.842 23.7396 318.802C23.6996 318.762 23.3896 319.032 23.0696 319.402C22.7496 319.772 22.5196 320.102 22.5696 320.142Z" fill="#263238"/>
<path d="M21.2397 319.152C21.2397 319.152 21.5897 319.062 21.9397 318.832C22.2897 318.602 22.5397 318.382 22.5097 318.332C22.4797 318.282 22.1697 318.422 21.8197 318.652C21.4697 318.882 21.2097 319.102 21.2397 319.152Z" fill="#263238"/>
<path d="M20.5896 317.332C19.5191 317.406 18.5172 317.886 17.7889 318.674C17.0606 319.463 16.6608 320.499 16.6711 321.572C16.6814 322.645 17.1012 323.674 17.8446 324.448C18.588 325.222 19.5988 325.683 20.6707 325.736C21.7425 325.79 22.7943 325.432 23.6112 324.736C24.4281 324.04 24.9483 323.059 25.0657 321.992C25.183 320.925 24.8885 319.854 24.2425 318.997C23.5964 318.14 22.6475 317.562 21.5896 317.382C21.2654 317.284 20.9221 317.267 20.5896 317.332Z" fill="#263238"/>
<path d="M20.4595 316.092C20.7371 316.347 21.086 316.511 21.4595 316.562C21.8174 316.675 22.2016 316.675 22.5595 316.562C22.2328 316.456 21.8985 316.376 21.5595 316.322C21.2 316.214 20.832 316.137 20.4595 316.092Z" fill="#263238"/>
<path d="M23.4097 318.682C23.7818 318.798 24.1698 318.855 24.5597 318.852C24.9812 318.862 25.4028 318.835 25.8197 318.772C26.072 318.738 26.32 318.678 26.5597 318.592C26.7075 318.534 26.8287 318.424 26.8997 318.282C26.932 318.199 26.9398 318.109 26.9221 318.022C26.9043 317.935 26.8618 317.855 26.7997 317.792C26.396 317.511 25.9075 317.378 25.4172 317.416C24.9268 317.455 24.4649 317.662 24.1097 318.002C23.8967 318.202 23.7265 318.444 23.6097 318.712C23.5397 318.902 23.5197 319.012 23.5397 319.022C23.7075 318.684 23.9344 318.379 24.2097 318.122C24.5169 317.863 24.8914 317.696 25.2897 317.642C25.5233 317.598 25.7633 317.602 25.9954 317.654C26.2274 317.705 26.4466 317.803 26.6397 317.942C26.7997 318.102 26.6397 318.312 26.4697 318.392C26.2506 318.477 26.0224 318.538 25.7897 318.572C25.3838 318.646 24.9723 318.686 24.5597 318.692C23.8597 318.682 23.4197 318.682 23.4097 318.682Z" fill="#263238"/>
<path d="M23.6995 318.782C23.6995 318.782 23.9295 318.532 23.9595 318.012C23.9688 317.704 23.9036 317.399 23.7695 317.122C23.7001 316.937 23.5847 316.773 23.4342 316.645C23.2837 316.517 23.1031 316.43 22.9095 316.392C22.8504 316.394 22.7923 316.409 22.7387 316.434C22.6851 316.459 22.6369 316.494 22.597 316.538C22.5571 316.581 22.5261 316.632 22.5059 316.688C22.4858 316.744 22.4768 316.803 22.4795 316.862C22.4772 317.051 22.5147 317.238 22.5895 317.412C22.7011 317.685 22.8455 317.943 23.0195 318.182C23.3295 318.592 23.5895 318.772 23.6095 318.752C23.6295 318.732 23.4095 318.512 23.1495 318.102C23.0006 317.858 22.8767 317.6 22.7795 317.332C22.6595 317.072 22.6195 316.622 22.9095 316.612C23.1995 316.602 23.4495 316.962 23.5895 317.212C23.7144 317.461 23.786 317.733 23.7995 318.012C23.7916 318.271 23.7581 318.529 23.6995 318.782Z" fill="#263238"/>
<path d="M4.59961 314.592C4.59961 314.592 5.10961 314.592 5.90961 314.842C6.93888 315.128 7.86954 315.692 8.59961 316.472C9.3131 317.268 9.79699 318.242 9.99961 319.292C10.1496 320.092 10.0996 320.612 10.1396 320.612C10.1786 320.496 10.1989 320.374 10.1996 320.252C10.2144 319.918 10.1977 319.583 10.1496 319.252C9.98905 318.155 9.50508 317.132 8.75961 316.312C7.99963 315.504 7.01902 314.937 5.93961 314.682C5.6115 314.606 5.27626 314.566 4.93961 314.562C4.82539 314.552 4.71039 314.562 4.59961 314.592Z" fill="#263238"/>
<path d="M12.6597 319.332C13.4831 319.655 14.3428 319.876 15.2197 319.992C16.0874 320.172 16.9751 320.236 17.8597 320.182C17.8597 320.122 16.6897 320.012 15.2597 319.772C13.8297 319.532 12.6797 319.272 12.6597 319.332Z" fill="#263238"/>
<path d="M9.1696 318.782C9.1196 318.782 9.2296 319.042 9.2996 319.332C9.3696 319.622 9.4096 319.862 9.4696 319.872C9.5296 319.882 9.6096 319.602 9.4696 319.272C9.3296 318.942 9.2096 318.742 9.1696 318.782Z" fill="#263238"/>
<path d="M8.10962 316.942C8.10962 316.942 8.10962 317.182 8.29962 317.392C8.48962 317.602 8.61962 317.752 8.66962 317.722C8.71962 317.692 8.66962 317.482 8.47962 317.262C8.28962 317.042 8.15962 316.902 8.10962 316.942Z" fill="#263238"/>
<path d="M6.35962 315.902C6.35962 315.962 6.59962 315.992 6.84962 316.132C7.09962 316.272 7.25962 316.432 7.30962 316.402C7.35962 316.372 7.30962 316.092 6.94962 315.932C6.58962 315.772 6.35962 315.842 6.35962 315.902Z" fill="#263238"/>
<path d="M5.04956 315.342C5.04956 315.342 5.10956 315.502 5.24956 315.582C5.38956 315.662 5.52956 315.682 5.55956 315.632C5.58956 315.582 5.49956 315.472 5.35956 315.392C5.21956 315.312 5.07956 315.282 5.04956 315.342Z" fill="#263238"/>
<path d="M98.7595 318.792L99.4295 326.232L100.55 326.182C105.55 325.902 125.83 324.422 129.03 323.052C132.59 321.522 117.03 319.792 117.03 319.792L116.66 316.672L98.7595 318.792Z" fill="#92E3A9"/>
<g opacity="0.5">
<path d="M105.91 325.372C105.478 323.888 104.513 322.617 103.2 321.802C101.909 320.988 100.36 320.688 98.8596 320.962L99.4196 325.962L105.91 325.372Z" fill="white"/>
</g>
<g opacity="0.5">
<path d="M124.64 320.902C124.64 320.902 130.15 321.842 129.58 322.802C129.01 323.762 108.58 326.022 99.4297 326.232V325.832L123.36 323.382C123.36 323.382 123.6 321.062 124.64 320.902Z" fill="white"/>
</g>
<path d="M99.1296 325.852H99.4396L100.33 325.802L103.61 325.582C106.37 325.372 110.18 325.042 114.39 324.582C118.6 324.122 122.39 323.582 125.13 323.212L128.36 322.682L129.24 322.532C129.341 322.518 129.441 322.498 129.54 322.472H129.23L128.36 322.682L125.1 323.112C122.36 323.472 118.56 323.952 114.36 324.412C110.16 324.872 106.36 325.232 103.59 325.482L100.36 325.682L99.4696 325.762L99.1296 325.852Z" fill="#263238"/>
<path d="M123.36 323.682C123.438 323.126 123.582 322.583 123.79 322.062C124.071 321.569 124.406 321.11 124.79 320.692C124.258 320.963 123.842 321.418 123.62 321.972C123.318 322.488 123.225 323.099 123.36 323.682Z" fill="#263238"/>
<path d="M117.749 321.572C117.799 321.572 118.02 321.262 118.24 320.812C118.398 320.557 118.497 320.27 118.529 319.972C118.529 319.972 118.259 320.282 118.039 320.722C117.819 321.162 117.689 321.542 117.749 321.572Z" fill="#263238"/>
<path d="M116.21 320.962C116.26 320.962 116.52 320.782 116.8 320.472C117.08 320.162 117.26 319.872 117.22 319.832C117.18 319.792 116.91 320.012 116.63 320.322C116.35 320.632 116.17 320.922 116.21 320.962Z" fill="#263238"/>
<path d="M115.11 319.372C115.422 319.448 115.748 319.448 116.06 319.372C116.378 319.376 116.692 319.308 116.98 319.172C116.652 319.087 116.308 319.087 115.98 319.172C115.679 319.175 115.382 319.243 115.11 319.372Z" fill="#263238"/>
<path d="M114.66 318.212C114.992 318.385 115.369 318.451 115.74 318.402C116.113 318.427 116.484 318.332 116.8 318.132C116.442 318.117 116.084 318.133 115.73 318.182C115.373 318.159 115.015 318.169 114.66 318.212Z" fill="#263238"/>
<path d="M118.18 319.932C118.568 319.958 118.957 319.914 119.33 319.802C119.742 319.706 120.144 319.568 120.53 319.392C120.766 319.297 120.991 319.177 121.2 319.032C121.329 318.938 121.418 318.798 121.45 318.642C121.456 318.553 121.438 318.464 121.397 318.385C121.357 318.306 121.295 318.239 121.22 318.192C120.756 318.029 120.251 318.03 119.788 318.196C119.326 318.362 118.934 318.682 118.68 319.102C118.522 319.346 118.423 319.623 118.39 319.912C118.364 320.017 118.364 320.127 118.39 320.232C118.472 319.877 118.614 319.539 118.81 319.232C119.031 318.896 119.348 318.635 119.72 318.482C119.934 318.381 120.167 318.324 120.404 318.313C120.641 318.303 120.877 318.34 121.1 318.422C121.3 318.532 121.25 318.762 121.1 318.902C120.909 319.04 120.705 319.157 120.49 319.252C120.115 319.429 119.727 319.576 119.33 319.692C118.62 319.852 118.18 319.902 118.18 319.932Z" fill="#263238"/>
<path d="M118.49 319.962C118.589 319.698 118.589 319.406 118.49 319.142C118.425 318.844 118.284 318.568 118.08 318.342C117.968 318.183 117.818 318.055 117.642 317.971C117.467 317.887 117.273 317.849 117.08 317.862C116.966 317.901 116.872 317.981 116.817 318.087C116.761 318.193 116.748 318.316 116.78 318.432C116.831 318.611 116.92 318.778 117.04 318.922C117.218 319.161 117.426 319.376 117.66 319.562C117.862 319.746 118.105 319.88 118.37 319.952C118.37 319.952 118.12 319.772 117.76 319.442C117.551 319.249 117.363 319.034 117.2 318.802C117.01 318.582 116.86 318.152 117.14 318.072C117.42 317.992 117.75 318.262 117.95 318.472C118.135 318.677 118.275 318.919 118.36 319.182C118.425 319.438 118.469 319.699 118.49 319.962Z" fill="#263238"/>
<path d="M98.9497 320.902C98.9497 320.902 99.4597 320.802 100.28 320.802C101.349 320.8 102.397 321.102 103.301 321.672C104.206 322.242 104.93 323.057 105.39 324.022C105.75 324.762 105.83 325.282 105.87 325.272C105.91 325.262 105.87 325.132 105.87 324.902C105.807 324.578 105.706 324.262 105.57 323.962C105.132 322.944 104.396 322.083 103.458 321.492C102.521 320.901 101.427 320.608 100.32 320.652C99.9824 320.655 99.6467 320.699 99.3197 320.782C99.1911 320.803 99.0663 320.843 98.9497 320.902Z" fill="#263238"/>
<path d="M107.969 323.372C108.849 323.482 109.74 323.482 110.619 323.372C111.503 323.312 112.377 323.144 113.219 322.872C113.219 322.802 112.039 323.012 110.599 323.152C109.159 323.292 107.969 323.302 107.969 323.372Z" fill="#263238"/>
<path d="M104.459 323.752C104.459 323.802 104.579 323.992 104.729 324.242C104.879 324.492 104.969 324.732 105.039 324.722C105.109 324.712 105.099 324.432 104.919 324.132C104.739 323.832 104.489 323.682 104.459 323.752Z" fill="#263238"/>
<path d="M102.95 322.252C102.95 322.302 103.05 322.472 103.26 322.642C103.47 322.812 103.66 322.902 103.7 322.862C103.74 322.822 103.6 322.642 103.4 322.472C103.2 322.302 102.99 322.202 102.95 322.252Z" fill="#263238"/>
<path d="M100.98 321.682C100.98 321.742 101.23 321.682 101.51 321.772C101.79 321.862 101.99 321.962 102.03 321.912C102.07 321.862 101.89 321.632 101.55 321.562C101.21 321.492 100.95 321.682 100.98 321.682Z" fill="#263238"/>
<path d="M99.5896 321.502C99.5896 321.562 99.6896 321.642 99.8396 321.682C99.9896 321.722 100.13 321.682 100.15 321.682C100.17 321.682 100.05 321.542 99.8996 321.502C99.7496 321.462 99.5996 321.442 99.5896 321.502Z" fill="#263238"/>
<path d="M103.98 36.6817C102.55 29.0317 94.0997 24.7817 90.7997 17.6817C89.5097 14.9417 89.0497 11.8518 87.6397 9.17175C86.0302 6.3448 83.4666 4.18337 80.4083 3.07475C77.35 1.96614 73.9968 1.9828 70.9497 3.12175L70.4197 3.94174C73.8397 11.1217 77.2497 16.0517 80.6597 23.2217C81.9859 25.6736 82.9046 28.3249 83.3797 31.0717C83.6897 33.8417 82.9497 36.8817 80.8097 38.6617C79.0897 40.0817 76.8097 40.5118 74.9097 41.7518C73.5455 42.7742 72.4775 44.1408 71.8151 45.7117C71.1526 47.2825 70.9196 49.0012 71.1397 50.6917C71.6318 54.0875 73.1901 57.2391 75.5897 59.6917C77.7897 62.1017 81.2697 64.1617 84.1697 62.6917C85.6397 61.9317 86.5497 60.4518 87.6297 59.2018C89.8497 56.6518 92.9097 55.0318 95.6297 53.0318C100.85 49.2418 105.17 43.0517 103.98 36.6817Z" fill="#263238"/>
<path d="M177.52 72.2417C175.6 73.9917 165.15 82.7717 165.15 82.7717L154.78 73.3317C155.05 72.5617 157.59 68.2017 157.88 67.1117C158.135 66.1712 158.223 65.1929 158.14 64.2217C158.09 63.0114 157.875 61.8136 157.5 60.6617C157.04 59.6617 158.06 58.6017 158.94 59.1017C159.82 59.6017 161.14 62.3817 161.1 65.9617C161.06 69.5417 175.1 61.3217 177.1 63.3317L177.52 72.2417Z" fill="#FFBE9D"/>
<path d="M88.3596 58.1518L122.76 99.3218L154.36 70.7618L168.14 84.2018C168.14 84.2018 128.49 127.832 122.44 127.522C116.39 127.212 95.8396 113.622 95.8396 113.622L88.3596 58.1518Z" fill="#92E3A9"/>
<path d="M166.45 52.0218C166.313 51.9761 166.164 51.9849 166.033 52.0464C165.903 52.1079 165.801 52.2172 165.75 52.3518L156.36 75.9318C156.274 76.1432 156.273 76.3794 156.357 76.5916C156.441 76.8037 156.603 76.9756 156.81 77.0718L167.91 82.3718C168.019 82.4231 168.137 82.452 168.258 82.4566C168.379 82.4612 168.499 82.4414 168.612 82.3985C168.725 82.3556 168.828 82.2903 168.915 82.2067C169.003 82.1231 169.072 82.0228 169.12 81.9118L179.63 57.4718C179.678 57.3586 179.702 57.2368 179.701 57.1139C179.7 56.991 179.674 56.8696 179.624 56.7571C179.574 56.6447 179.502 56.5436 179.412 56.4601C179.322 56.3767 179.216 56.3126 179.1 56.2718L166.45 52.0218Z" fill="#263238"/>
<path d="M166.15 53.7217L157.55 74.7617L169.18 80.0318L177.99 57.7217L166.15 53.7217Z" fill="#F5F5F5"/>
<path d="M162.799 90.3318C161.929 89.8359 161.108 89.2565 160.349 88.6018C158.899 87.4518 156.959 85.7918 154.929 83.8218C152.899 81.8518 151.199 79.9418 150.009 78.5218C149.33 77.7904 148.73 76.9893 148.219 76.1318C148.958 76.8006 149.649 77.5189 150.289 78.2818C151.539 79.6318 153.289 81.4818 155.289 83.4418C157.289 85.4018 159.189 87.1018 160.579 88.3118C161.365 88.9331 162.107 89.6081 162.799 90.3318Z" fill="#263238"/>
<path d="M152.91 74.7818C152.98 74.8418 152.55 75.1818 152.6 75.9118C152.612 76.1044 152.664 76.2924 152.752 76.4643C152.839 76.6362 152.961 76.7885 153.11 76.9118C153.309 77.039 153.539 77.1097 153.775 77.1161C154.011 77.1226 154.244 77.0646 154.45 76.9485C154.655 76.8323 154.825 76.6623 154.942 76.4567C155.058 76.2512 155.116 76.0179 155.11 75.7818C155.081 75.58 155.011 75.3865 154.902 75.2141C154.793 75.0418 154.649 74.8944 154.48 74.7818C154.132 74.5849 153.739 74.4815 153.34 74.4818C153.34 74.4818 153.43 74.3618 153.67 74.3118C154.01 74.2402 154.365 74.2934 154.67 74.4618C154.905 74.5795 155.111 74.7498 155.271 74.9596C155.43 75.1694 155.539 75.4131 155.59 75.6718C155.621 76.0023 155.557 76.3349 155.404 76.6299C155.252 76.9249 155.018 77.1698 154.73 77.3353C154.442 77.5008 154.113 77.58 153.781 77.5635C153.449 77.5469 153.13 77.4352 152.86 77.2418C152.659 77.0707 152.501 76.8549 152.399 76.6118C152.296 76.3687 152.252 76.105 152.27 75.8418C152.281 75.4951 152.411 75.1629 152.64 74.9018C152.76 74.8018 152.9 74.7618 152.91 74.7818Z" fill="#263238"/>
<path d="M121.42 111.352C121.143 110.791 120.97 110.184 120.91 109.562C120.422 106.589 120.769 103.54 121.91 100.752C122.105 100.157 122.41 99.604 122.81 99.1218C122.142 101.075 121.643 103.083 121.32 105.122C121.175 107.197 121.208 109.282 121.42 111.352Z" fill="#263238"/>
<path d="M126.36 111.032C125.899 110.59 125.523 110.068 125.25 109.492C123.71 106.819 122.838 103.814 122.71 100.732C122.634 100.097 122.671 99.4537 122.82 98.8318C123.067 100.95 123.445 103.05 123.95 105.122C124.629 107.14 125.434 109.114 126.36 111.032Z" fill="#263238"/>
<path d="M166.35 57.6418L160.66 71.7918L169.18 75.2818L175.12 60.8218L166.35 57.6418Z" fill="#EBEBEB"/>
<path d="M168.741 71.5928L163.703 69.4875C163.331 69.332 162.903 69.5076 162.748 69.8796L162.651 70.1102C162.496 70.4822 162.672 70.9098 163.043 71.0652L168.081 73.1705C168.453 73.326 168.881 73.1505 169.036 72.7785L169.133 72.5478C169.288 72.1758 169.113 71.7482 168.741 71.5928Z" fill="#92E3A9"/>
<path d="M173.299 62.3347L166.982 59.9565L166.636 60.8736L172.954 63.2519L173.299 62.3347Z" fill="#455A64"/>
<path d="M172.436 65.5246L165.455 62.8962L164.775 64.7024L171.756 67.3308L172.436 65.5246Z" fill="#E0E0E0"/>
<path d="M171.279 68.4199L164.297 65.7915L163.617 67.5978L170.599 70.2261L171.279 68.4199Z" fill="#E0E0E0"/>
<path d="M177.15 63.3318C175.54 63.5918 173.58 63.7518 171.97 64.0218C171.509 64.063 171.064 64.2101 170.67 64.4518C170.484 64.5893 170.351 64.7871 170.295 65.0113C170.238 65.2356 170.261 65.4725 170.36 65.6818C170.61 66.1318 171.25 66.1718 171.77 66.1618L175.32 66.0418C173.805 66.1101 172.304 66.3619 170.85 66.7918C170.19 67.0118 169.45 67.4618 169.43 68.1618C169.459 68.4649 169.592 68.7486 169.808 68.964C170.023 69.1793 170.307 69.3129 170.61 69.3418C171.229 69.3808 171.85 69.3808 172.47 69.3418C172.47 69.3418 174.9 69.3418 175 69.7018C173.49 69.7018 171.48 70.0118 170 70.1518C169.58 70.1518 169.39 70.7518 169.29 71.1518C169.236 71.3522 169.25 71.565 169.329 71.7567C169.409 71.9485 169.55 72.1085 169.73 72.2118C169.923 72.2764 170.128 72.2969 170.33 72.2718L176.21 72.0918" fill="#FFBE9D"/>
<path d="M76.1996 55.6818C76.1996 55.6818 83.3496 54.8418 88.3696 58.1418C92.8996 61.1418 108.8 106.682 108.18 120.202C107.56 133.722 109.29 157.562 112.07 167.382C114.85 177.202 116.95 262.382 95.0696 302.962L54.3196 297.242L67.0596 187.812L65.7596 88.5418L76.1996 55.6818Z" fill="#92E3A9"/>
<g opacity="0.3">
<path d="M73.8495 55.6818C73.8495 55.6818 81.0095 54.8418 86.0295 58.1418C90.5595 61.1418 106.449 106.682 105.839 120.202C105.229 133.722 106.939 157.562 109.729 167.382C112.519 177.202 114.609 262.382 92.7295 302.962L55.4795 297.242L64.7195 187.812L63.3595 88.5518L73.8495 55.6818Z" fill="black"/>
</g>
<path d="M58.8695 53.5918C58.8695 53.5918 36.4595 51.1818 42.4495 83.2118L48.2095 116.912L84.7995 139.052C89.7395 140.382 85.5395 116.052 92.9795 104.792C95.7695 100.582 95.9795 97.4318 95.7695 95.4918C96.4795 88.1418 90.5895 83.5618 89.7695 76.1318C88.8495 65.3718 88.8895 59.4118 84.2095 58.2018L58.8895 53.5918" fill="#455A64"/>
<path d="M90.1796 73.5717C89.7963 75.1217 89.7963 76.7418 90.1796 78.2917C90.6249 79.9689 91.2978 81.5772 92.1796 83.0717C93.2814 84.9213 94.2376 86.8538 95.0396 88.8517C96.3406 92.6043 96.3933 96.6769 95.1896 100.462C94.8334 101.593 94.3573 102.682 93.7696 103.712C93.5678 104.101 93.3193 104.463 93.0296 104.792C93.7499 103.362 94.3552 101.877 94.8396 100.352C95.9022 96.6375 95.801 92.6868 94.5496 89.0318C93.7564 87.0581 92.8241 85.1433 91.7596 83.3017C90.8892 81.7599 90.2491 80.099 89.8596 78.3718C89.6006 77.2012 89.5802 75.9904 89.7996 74.8118C89.8609 74.4909 89.9513 74.1762 90.0696 73.8718C90.1096 73.6818 90.1596 73.5617 90.1796 73.5717Z" fill="#263238"/>
<path d="M78.9596 55.9017C78.4296 50.3917 77.9596 44.5817 77.9596 44.5817C77.9596 44.5817 84.9596 42.7017 85.4996 33.2917C86.0296 24.2917 83.3196 8.69174 83.3196 8.69174V7.90175C72.6896 4.74175 60.1096 4.90175 53.6296 13.7617L58.6296 58.4617C59.2196 63.6517 64.1396 67.2917 69.6896 66.6217C75.3596 65.9518 79.4596 61.1517 78.9596 55.9017Z" fill="#FFBE9D"/>
<path d="M83.3596 20.0418C83.3917 20.3465 83.3059 20.652 83.12 20.8956C82.9341 21.1392 82.662 21.3024 82.3596 21.3518C82.2096 21.3789 82.0558 21.3757 81.9071 21.3424C81.7584 21.309 81.6179 21.2462 81.4939 21.1576C81.3699 21.0691 81.265 20.9566 81.1852 20.8267C81.1054 20.6969 81.0525 20.5524 81.0296 20.4018C80.9975 20.097 81.0832 19.7915 81.2691 19.5479C81.455 19.3044 81.7271 19.1412 82.0296 19.0918C82.1795 19.0646 82.3333 19.0678 82.482 19.1012C82.6307 19.1345 82.7712 19.1973 82.8952 19.2859C83.0192 19.3745 83.1241 19.487 83.2039 19.6168C83.2837 19.7466 83.3366 19.8911 83.3596 20.0418Z" fill="#263238"/>
<path d="M83.3597 18.7318C83.2197 18.9018 82.2597 18.3318 80.9797 18.4518C79.6997 18.5718 78.8297 19.3218 78.6697 19.1718C78.5097 19.0218 78.6697 18.8218 79.0997 18.4818C79.6151 18.0416 80.2546 17.7726 80.9297 17.7118C81.5949 17.6435 82.2645 17.7907 82.8397 18.1318C83.2297 18.3918 83.3597 18.6818 83.3597 18.7318Z" fill="#263238"/>
<path d="M70.0395 21.7718C70.0716 22.0765 69.9859 22.382 69.7999 22.6256C69.614 22.8692 69.3419 23.0324 69.0395 23.0818C68.8858 23.1087 68.7283 23.1038 68.5767 23.0673C68.425 23.0309 68.2824 22.9638 68.1577 22.87C68.0331 22.7763 67.929 22.658 67.8519 22.5224C67.7748 22.3868 67.7263 22.2368 67.7095 22.0818C67.6774 21.777 67.7631 21.4715 67.949 21.228C68.135 20.9844 68.4071 20.8211 68.7095 20.7718C68.8631 20.7449 69.0206 20.7498 69.1723 20.7862C69.324 20.8226 69.4666 20.8898 69.5912 20.9835C69.7159 21.0772 69.82 21.1956 69.8971 21.3311C69.9742 21.4667 70.0227 21.6167 70.0395 21.7718Z" fill="#263238"/>
<path d="M70.0295 20.5117C69.8995 20.6817 68.9295 20.1017 67.6595 20.2317C66.3895 20.3617 65.5095 21.0917 65.3495 20.9517C65.1895 20.8117 65.3995 20.5917 65.7795 20.2517C66.2962 19.8152 66.9356 19.5497 67.6095 19.4917C68.2736 19.4218 68.9427 19.5655 69.5195 19.9017C69.9395 20.1717 70.0995 20.4317 70.0295 20.5117Z" fill="#263238"/>
<path d="M75.6097 29.5318C76.2506 29.261 76.9223 29.0696 77.6097 28.9618C77.9297 28.8918 78.2297 28.7918 78.2597 28.5718C78.2626 28.2298 78.1537 27.8962 77.9497 27.6218L76.7397 25.2318C75.6398 23.2119 74.7002 21.1088 73.9297 18.9418C75.1954 20.8653 76.3023 22.8886 77.2397 24.9918L78.4097 27.4018C78.655 27.7733 78.7612 28.2195 78.7097 28.6618C78.6745 28.782 78.612 28.8924 78.527 28.9844C78.442 29.0763 78.3368 29.1473 78.2197 29.1918C78.044 29.2626 77.8585 29.3064 77.6697 29.3218C76.9955 29.4835 76.3027 29.5541 75.6097 29.5318Z" fill="#263238"/>
<path d="M77.9795 44.5818C73.6246 45.074 69.2184 44.3506 65.2495 42.4918C65.2495 42.4918 68.8795 48.5518 78.0695 46.7718L77.9795 44.5818Z" fill="#EB996E"/>
<path d="M75.3597 32.6818C75.0862 32.3994 74.7452 32.1916 74.369 32.0778C73.9928 31.9641 73.5937 31.9482 73.2097 32.0318C72.9292 32.0834 72.6623 32.1916 72.425 32.3497C72.1877 32.5079 71.9852 32.7127 71.8297 32.9518C71.6735 33.1763 71.5898 33.4433 71.5898 33.7168C71.5898 33.9903 71.6735 34.2572 71.8297 34.4818C72.0588 34.6898 72.3443 34.8255 72.6504 34.8717C72.9564 34.918 73.2693 34.8728 73.5497 34.7417C74.1336 34.4677 74.6571 34.0802 75.0897 33.6017C75.2238 33.4864 75.3356 33.3474 75.4197 33.1917C75.459 33.1156 75.4752 33.0296 75.4664 32.9443C75.4575 32.859 75.4239 32.7782 75.3697 32.7117" fill="#92E3A9"/>
<path d="M71.9295 30.7917C72.1395 30.7917 72.2795 32.1417 73.5595 33.0117C74.8395 33.8817 76.3095 33.5817 76.3395 33.7717C76.3695 33.9617 76.0395 34.0817 75.4095 34.1517C74.5985 34.2502 73.7791 34.0551 73.0995 33.6017C72.4493 33.1606 71.9916 32.4884 71.8195 31.7217C71.7095 31.1517 71.8395 30.7917 71.9295 30.7917Z" fill="#263238"/>
<path d="M35.0696 181.852L20.8596 240.412C20.8596 240.412 3.91959 310.532 3.35959 312.382L2.82959 314.562L26.6996 316.362L68.0596 186.292L35.0696 181.852Z" fill="#263238"/>
<path d="M78.0397 222.962C81.8997 241.632 96.0397 319.962 96.0397 319.962L120.25 317.472L106.48 217.562C106.26 214.955 105.73 212.383 104.9 209.902L82.2697 142.052L39.7097 114.982C39.2897 114.982 32.8197 132.472 33.7097 144.592C34.1789 150.014 36.0653 155.218 39.1797 159.682C41.8897 163.632 45.6597 169.142 46.4997 170.422C47.8497 172.462 78.0397 222.962 78.0397 222.962Z" fill="#263238"/>
<path d="M29.6296 138.502C28.4696 142.722 27.4996 146.992 26.7496 151.302C24.0296 166.992 17.1096 205.172 12.6196 215.302C6.92958 228.102 -2.31042 276.452 0.529583 285.302C3.36958 294.152 65.2396 303.082 65.2396 303.082C65.2396 303.082 68.7896 245.132 72.3496 230.562C75.9096 215.992 83.3496 183.982 84.4296 165.142C85.5096 146.302 85.1396 113.592 79.0996 93.3318C73.0596 73.0718 59.1596 51.7818 59.1596 51.7818C59.1596 51.7818 47.2796 55.0618 43.2296 59.7818C43.2296 59.7818 38.2896 65.8418 38.2296 71.6118C38.1696 77.3818 35.4896 104.812 33.6996 120.752C33.1396 125.302 31.1296 133.092 29.6296 138.502Z" fill="#92E3A9"/>
<path d="M84.4897 164.182C84.4731 164.086 84.4731 163.988 84.4897 163.892C84.4897 163.672 84.4897 163.392 84.4897 163.042C84.4897 162.262 84.3997 161.172 84.3297 159.782C84.1765 155.763 83.7925 151.756 83.1797 147.782C82.7343 145.047 82.0071 142.366 81.0097 139.782C79.8477 136.839 78.2388 134.094 76.2397 131.642C74.1897 129.012 71.7597 126.462 69.3997 123.642C68.1837 122.222 67.0517 120.733 66.0097 119.182C64.9424 117.569 64.0601 115.842 63.3797 114.032C61.885 110.465 61.666 106.491 62.7597 102.782C63.4361 101.103 64.3124 99.5112 65.3697 98.0418C65.8079 97.3251 66.1445 96.551 66.3697 95.7418C66.4688 95.3534 66.4992 94.9506 66.4597 94.5518C66.4144 94.1681 66.2772 93.801 66.0597 93.4818C65.6028 92.8438 64.9495 92.3732 64.1997 92.1418C63.4497 91.8618 62.6597 91.6518 61.9097 91.3018C61.1534 90.9658 60.5058 90.4255 60.0397 89.7418C59.6189 89.0704 59.3461 88.317 59.2397 87.5318C59.0594 86.0777 59.0965 84.6049 59.3497 83.1618C59.5497 81.7918 59.7397 80.4718 59.9197 79.2218C60.6597 74.2218 61.2497 70.1618 61.6697 67.3218C61.8897 65.9418 62.0497 64.8618 62.1697 64.0818L62.3197 63.2518C62.3338 63.154 62.3539 63.0571 62.3797 62.9618C62.3952 63.0578 62.3952 63.1557 62.3797 63.2518C62.3797 63.4718 62.3797 63.7518 62.2897 64.1018C62.1897 64.8818 62.0597 65.9618 61.8797 67.3418C61.4997 70.2018 60.9597 74.2618 60.2997 79.2718C60.1297 80.5318 59.9497 81.8518 59.7597 83.2218C59.5241 84.6232 59.4937 86.0516 59.6697 87.4618C59.7772 88.1735 60.0327 88.8548 60.4197 89.4618C60.8405 90.0817 61.4306 90.5676 62.1197 90.8618C62.8097 91.1818 63.5897 91.3818 64.3797 91.6718C65.2263 91.9367 65.9635 92.4703 66.4797 93.1918C66.7311 93.5737 66.8919 94.0081 66.9497 94.4618C66.9969 94.9174 66.963 95.3779 66.8497 95.8218C66.6143 96.6847 66.2503 97.5073 65.7697 98.2618C64.7354 99.7086 63.8761 101.273 63.2097 102.922C62.1661 106.52 62.3885 110.368 63.8397 113.822C65.2385 117.3 67.2428 120.503 69.7597 123.282C72.0997 126.082 74.5297 128.642 76.5897 131.282C78.6022 133.82 80.2112 136.653 81.3597 139.682C82.349 142.287 83.0629 144.988 83.4897 147.742C84.0803 151.716 84.4143 155.724 84.4897 159.742C84.4897 161.135 84.5097 162.225 84.5497 163.012V163.862C84.4997 164.082 84.4897 164.182 84.4897 164.182Z" fill="#263238"/>
<path d="M76.5996 172.102C76.5996 172.102 76.6496 171.942 76.8896 171.782C77.2419 171.574 77.6582 171.503 78.0596 171.582C78.373 171.628 78.6664 171.764 78.9042 171.973C79.142 172.183 79.3141 172.457 79.3996 172.762C79.5226 173.141 79.515 173.55 79.378 173.924C79.2409 174.298 78.9823 174.615 78.6435 174.825C78.3048 175.035 77.9055 175.125 77.5095 175.081C77.1136 175.037 76.7438 174.861 76.4596 174.582C76.2259 174.367 76.0598 174.09 75.9817 173.782C75.9035 173.475 75.9167 173.152 76.0196 172.852C76.1434 172.459 76.4065 172.124 76.7596 171.912C77.0096 171.782 77.1696 171.782 77.1796 171.812C76.7927 172.091 76.5109 172.493 76.3796 172.952C76.3186 173.18 76.3238 173.42 76.3946 173.645C76.4655 173.87 76.599 174.07 76.7796 174.222C76.9901 174.42 77.2604 174.543 77.5482 174.572C77.8361 174.6 78.1253 174.533 78.3708 174.38C78.6163 174.227 78.8042 173.997 78.9053 173.726C79.0064 173.455 79.0149 173.158 78.9296 172.882C78.8753 172.652 78.7574 172.442 78.5895 172.275C78.4215 172.109 78.2101 171.994 77.9796 171.942C77.514 171.852 77.0322 171.908 76.5996 172.102Z" fill="#263238"/>
<path d="M69.9696 206.562C69.9696 206.562 70.0296 206.402 70.2696 206.252C70.6185 206.035 71.0371 205.96 71.4396 206.042C71.7521 206.09 72.0443 206.227 72.2817 206.436C72.5191 206.645 72.6919 206.918 72.7796 207.222C72.9026 207.601 72.895 208.01 72.758 208.384C72.6209 208.758 72.3623 209.075 72.0235 209.285C71.6848 209.495 71.2855 209.585 70.8895 209.541C70.4936 209.497 70.1239 209.321 69.8396 209.042C69.6533 208.863 69.5106 208.643 69.4224 208.4C69.3343 208.157 69.303 207.897 69.331 207.641C69.359 207.384 69.4456 207.137 69.584 206.918C69.7224 206.7 69.9091 206.517 70.1296 206.382C70.3796 206.242 70.5496 206.242 70.5496 206.272C70.1696 206.558 69.8896 206.957 69.7496 207.412C69.6922 207.641 69.7001 207.881 69.7726 208.106C69.8451 208.33 69.9792 208.53 70.1596 208.682C70.3779 208.865 70.6464 208.978 70.9299 209.007C71.2135 209.035 71.4991 208.978 71.7496 208.842C71.9819 208.676 72.1594 208.445 72.2592 208.178C72.359 207.91 72.3765 207.619 72.3096 207.342C72.2516 207.105 72.1263 206.891 71.9488 206.724C71.7713 206.557 71.5493 206.445 71.3096 206.402C70.8568 206.324 70.3913 206.38 69.9696 206.562Z" fill="#263238"/>
<path d="M69.7596 163.452C69.7762 163.561 69.7762 163.672 69.7596 163.782C69.7596 164.035 69.7296 164.368 69.6696 164.782C69.5796 165.672 69.4396 166.932 69.2596 168.542C68.8796 171.812 68.2596 176.542 67.4296 182.362C66.9896 185.272 66.4296 188.452 65.7596 191.842C65.4321 193.614 64.9502 195.354 64.3196 197.042C64.2306 197.268 64.1271 197.489 64.0096 197.702C63.8729 197.916 63.7043 198.108 63.5096 198.272C63.1359 198.595 62.7185 198.865 62.2696 199.072C61.3821 199.476 60.4579 199.794 59.5096 200.022C55.5108 200.852 51.4431 201.308 47.3596 201.382C42.9867 201.56 38.6074 201.51 34.2396 201.232L33.6796 201.162C33.5527 201.143 33.4321 201.094 33.3278 201.019C33.2235 200.944 33.1384 200.846 33.0796 200.732C32.9051 200.375 32.7999 199.988 32.7696 199.592C32.695 198.864 32.6749 198.132 32.7096 197.402C32.7096 195.962 32.8896 194.552 33.0496 193.162C33.3796 190.372 33.8096 187.662 34.2596 185.032C35.1596 179.772 36.1496 174.822 37.1296 170.292V170.122H37.3596C45.3522 169.428 53.2709 168.053 61.0296 166.012C63.8396 165.272 66.0296 164.602 67.5196 164.152L69.2496 163.622C69.4327 163.557 69.6197 163.503 69.8096 163.462L69.6596 163.522L69.2196 163.682C68.8296 163.832 68.2996 164.032 67.5596 164.282C66.0896 164.782 63.8996 165.482 61.0996 166.282C53.3313 168.42 45.3857 169.853 37.3596 170.562L37.5596 170.382C36.5596 174.912 35.6296 179.862 34.7396 185.112C34.2996 187.742 33.8796 190.452 33.5596 193.222C33.3996 194.602 33.2596 196.012 33.2196 197.422C33.1845 198.126 33.2045 198.831 33.2796 199.532C33.3081 199.856 33.3892 200.174 33.5196 200.472C33.6096 200.592 33.6396 200.632 33.7496 200.652L34.2796 200.712C38.6272 200.994 42.9865 201.047 47.3396 200.872C51.3723 200.802 55.3897 200.357 59.3396 199.542C60.2608 199.328 61.1585 199.023 62.0196 198.632C62.4352 198.482 62.8137 198.245 63.1294 197.936C63.4452 197.627 63.6908 197.254 63.8496 196.842C64.4762 195.187 64.958 193.48 65.2896 191.742C66.0096 188.372 66.5496 185.192 67.0096 182.292C67.9396 176.482 68.5696 171.772 69.0096 168.512C69.2296 166.902 69.3996 165.642 69.5196 164.752C69.5796 164.352 69.6196 164.022 69.6596 163.752C69.6996 163.482 69.7596 163.452 69.7596 163.452Z" fill="#263238"/>
<path d="M69.1196 170.742C68.7474 170.992 68.3482 171.2 67.9296 171.362C67.1496 171.732 65.9896 172.212 64.5496 172.752C56.9696 175.55 48.9272 176.884 40.8496 176.682C39.2996 176.682 38.0496 176.552 37.1996 176.452C36.7514 176.43 36.3061 176.366 35.8696 176.262C36.3149 176.212 36.7644 176.212 37.2096 176.262C38.0696 176.262 39.3096 176.322 40.8496 176.322C48.8683 176.318 56.8316 174.994 64.4196 172.402C65.8796 171.902 67.0496 171.472 67.8496 171.162C68.258 170.98 68.6834 170.839 69.1196 170.742Z" fill="#263238"/>
<path d="M12.9995 142.542L13.0895 142.072C13.1595 141.732 13.2595 141.282 13.3895 140.692C13.6795 139.472 14.0995 137.692 14.6295 135.432C15.7295 130.872 17.3995 124.292 19.5695 116.192L23.1595 102.952C24.4595 98.1918 25.8295 93.1018 27.4595 87.7918C29.1278 82.2225 31.1897 76.7788 33.6295 71.5018C34.9397 68.7172 36.4191 66.0155 38.0595 63.4118C38.8771 62.0556 39.8035 60.768 40.8295 59.5618C41.8653 58.3119 43.149 57.2904 44.5995 56.5618C46.1035 55.8158 47.8375 55.6796 49.4395 56.1818C50.9756 56.7267 52.3178 57.7107 53.2995 59.0118C55.2995 61.5918 55.7995 64.8318 56.0895 67.8018C56.5995 73.8018 57.0895 79.6218 57.5595 85.1518C58.4795 96.2018 59.3095 106.152 60.0095 114.512C60.7095 122.872 61.2395 129.612 61.6195 134.312C61.7995 136.632 61.9395 138.442 62.0295 139.702C62.0295 140.302 62.0995 140.762 62.1295 141.102C62.1384 141.262 62.1384 141.422 62.1295 141.582C62.1295 141.582 62.1295 141.422 62.0595 141.112C61.9895 140.802 61.9795 140.302 61.9195 139.712L61.4095 134.332C60.9895 129.632 60.4095 122.882 59.6395 114.542C58.8695 106.202 58.0395 96.2318 57.0695 85.1918C56.5895 79.6618 56.0695 73.8618 55.5695 67.8518C55.2795 64.9018 54.7795 61.7518 52.8895 59.3318C51.9702 58.1154 50.7155 57.1943 49.2795 56.6818C47.8072 56.2144 46.2106 56.34 44.8295 57.0318C43.4398 57.7403 42.211 58.7275 41.2195 59.9318C40.2114 61.1049 39.3016 62.3592 38.4995 63.6818C36.8687 66.2566 35.396 68.9282 34.0895 71.6818C31.6557 76.9339 29.5939 82.3506 27.9195 87.8918C26.2795 93.1818 24.9195 98.2718 23.5795 103.022C22.2395 107.772 21.0395 112.202 19.9295 116.242C17.7095 124.332 15.9895 130.902 14.8295 135.442C14.2495 137.702 13.8295 139.442 13.4995 140.682C13.3395 141.262 13.2295 141.682 13.1395 142.042C13.0495 142.402 12.9995 142.542 12.9995 142.542Z" fill="#455A64"/>
<path d="M10.5496 139.092C10.1596 140.652 2.88965 182.022 2.88965 182.022L56.9797 183.772L64.4296 140.872L10.5496 139.092Z" fill="#263238"/>
<path d="M63.8697 141.682C63.7184 141.82 63.5543 141.944 63.3797 142.052C63.0597 142.282 62.5597 142.602 61.9197 143.052C60.6497 143.872 58.7697 145.052 56.4097 146.362C54.0497 147.672 51.1997 149.242 47.9497 150.782C46.3197 151.542 44.6297 152.352 42.7597 153.022C40.8238 153.652 38.7951 153.95 36.7597 153.902C32.793 153.718 28.9091 152.702 25.3597 150.922C22.5009 149.488 19.8166 147.729 17.3597 145.682C15.2497 143.962 13.6497 142.452 12.5597 141.402C12.0197 140.872 11.5597 140.452 11.3197 140.162C11.173 140.021 11.0391 139.867 10.9197 139.702C11.0922 139.812 11.2531 139.939 11.3997 140.082C11.7297 140.392 12.1697 140.772 12.6997 141.252C13.8297 142.252 15.4597 143.722 17.5897 145.392C20.0598 147.371 22.7431 149.068 25.5897 150.452C29.0638 152.147 32.8481 153.114 36.7097 153.292C38.6996 153.343 40.684 153.059 42.5797 152.452C44.3797 151.802 46.1097 151.002 47.7297 150.262C50.9697 148.742 53.8297 147.262 56.2097 145.952C58.5897 144.642 60.4897 143.552 61.7997 142.792L63.3097 141.912C63.4847 141.809 63.6732 141.732 63.8697 141.682Z" fill="#455A64"/>
<path d="M60.5596 143.502C60.6996 143.502 59.2496 152.502 57.3196 163.632C55.3896 174.762 53.7096 183.682 53.5696 183.682C53.4296 183.682 54.8796 174.682 56.8096 163.562C58.7396 152.442 60.4196 143.482 60.5596 143.502Z" fill="#455A64"/>
<path d="M35.1196 152.222C34.9696 153.562 34.8296 154.912 34.6796 156.222C34.6045 156.642 34.6045 157.072 34.6796 157.492C34.7269 157.702 34.8298 157.895 34.9776 158.052C35.1254 158.208 35.3126 158.322 35.5196 158.382C35.7666 158.406 36.0151 158.353 36.2302 158.229C36.4454 158.105 36.6165 157.918 36.7196 157.692C36.9172 157.234 37.0161 156.74 37.0096 156.242C37.0796 154.802 37.1596 153.362 37.2396 151.932H35.4796" fill="#455A64"/>
<path d="M46.2596 57.2418C50.6596 55.7618 54.3296 61.4618 54.8296 66.0718C55.3617 71.3882 55.462 76.7391 55.1296 82.0718C54.3396 97.8318 47.2096 112.902 47.2096 112.902L92.4496 119.682L90.7896 137.082L33.5796 130.942C31.5912 130.73 29.6741 130.082 27.9658 129.042C26.2575 128.003 24.8001 126.599 23.6982 124.93C22.5963 123.261 21.8771 121.37 21.5921 119.391C21.307 117.411 21.4633 115.394 22.0496 113.482C27.1596 96.8118 35.5096 72.8418 37.3596 68.8718C39.9196 63.5218 40.2096 59.2618 46.2596 57.2418Z" fill="#92E3A9"/>
<path d="M31.4197 130.482H31.7197L32.5797 130.602L35.8897 131.102C38.7897 131.502 42.9997 132.102 48.2897 132.712C58.8697 133.962 73.7297 135.442 90.7997 136.712L90.5297 136.942C91.0597 131.412 91.6197 125.572 92.1897 119.572L92.4097 119.852L47.1797 113.042H46.9297L47.0097 112.812C49.9497 103.712 52.1997 96.1818 53.5397 90.8818C54.2197 88.2418 54.6897 86.1518 54.9797 84.7318L55.3097 83.1118C55.3897 82.7518 55.4397 82.5618 55.4397 82.5618C55.4397 82.5618 55.4397 82.7518 55.3797 83.1218C55.3197 83.4918 55.2397 84.0418 55.0997 84.7618C54.8497 86.1918 54.4097 88.2818 53.7697 90.9418C52.4997 96.2618 50.3097 103.822 47.4097 112.942L47.2297 112.672L92.4897 119.382H92.7297V119.632C92.1597 125.632 91.5997 131.462 91.0697 137.002V137.252H90.8297C73.7497 135.912 58.8897 134.362 48.3097 133.022C43.0297 132.362 38.8197 131.722 35.9297 131.262L32.5597 130.682L31.7097 130.522L31.4197 130.482Z" fill="#263238"/>
<path d="M81.8796 136.302C81.8921 133.293 82.0824 130.288 82.4496 127.302C82.6371 124.283 83.0044 121.277 83.5496 118.302C83.5246 121.31 83.3309 124.315 82.9696 127.302C82.7781 130.32 82.4141 133.325 81.8796 136.302Z" fill="#263238"/>
<path d="M87.6296 121.252C87.6296 121.252 87.7496 121.182 87.9696 121.252C88.288 121.322 88.5672 121.512 88.7496 121.782C88.9015 121.986 88.99 122.231 89.0042 122.485C89.0185 122.739 88.9577 122.992 88.8296 123.212C88.6744 123.484 88.4377 123.702 88.1527 123.833C87.8677 123.964 87.5488 124.002 87.2409 123.943C86.9329 123.883 86.6514 123.728 86.4359 123.5C86.2204 123.272 86.0818 122.983 86.0396 122.672C85.9964 122.427 86.017 122.175 86.0993 121.94C86.1816 121.706 86.3229 121.496 86.5096 121.332C87.1596 120.782 87.7296 120.972 87.6996 121.022C87.6696 121.072 87.2096 121.102 86.7696 121.592C86.6469 121.724 86.5589 121.884 86.5135 122.059C86.4682 122.234 86.4668 122.417 86.5096 122.592C86.5558 122.797 86.6577 122.986 86.8041 123.138C86.9504 123.29 87.1357 123.398 87.3396 123.452C87.5464 123.48 87.7572 123.451 87.948 123.366C88.1389 123.281 88.3022 123.145 88.4196 122.972C88.5073 122.82 88.5535 122.647 88.5535 122.472C88.5535 122.296 88.5073 122.124 88.4196 121.972C88.1196 121.362 87.6196 121.332 87.6296 121.252Z" fill="#263238"/>
<path d="M102.2 114.552L104.26 135.982H114.71L117.21 114.552H102.2Z" fill="#EBEBEB"/>
<path d="M102.199 111.782C101.551 112.582 101.197 113.582 101.199 114.612H118.199C118.281 114.094 118.233 113.564 118.058 113.07C117.884 112.576 117.588 112.133 117.199 111.782H102.199Z" fill="#455A64"/>
<path d="M104.13 109.812L103.56 111.932L116.37 112.032L115.52 109.792L104.13 109.812Z" fill="#455A64"/>
<path d="M101.979 119.912C101.979 120.112 103.229 130.702 103.229 130.702H115.999L117.21 119.912H101.979Z" fill="#455A64"/>
<path d="M102.78 118.022L102.45 121.612L114.81 121.902C114.81 121.902 114.81 126.072 113.56 127.322C113.56 127.322 114.81 129.822 113.42 131.212C112.03 132.602 111.2 132.212 111.2 132.212C111.2 132.212 111.76 134.992 110.37 135.692C108.98 136.392 90.9497 135.312 90.9497 135.312L92.0597 123.682L96.0597 123.332C96.2297 119.482 100.21 117.572 102.78 118.022Z" fill="#FFBE9D"/>
<path d="M87.1296 8.78177C86.4564 6.7005 85.0629 4.9276 83.1996 3.78177C81.9293 3.05851 80.4621 2.75737 79.0096 2.92177V2.62176C77.6696 0.211763 75.0096 -0.308238 72.2696 0.151762C69.5296 0.611762 66.8296 2.61176 64.3896 3.91176C61.0896 5.67176 57.9396 7.68176 54.7796 9.69176C52.1596 11.3618 49.4796 13.1018 47.6696 15.6218C46.7255 16.9574 46.0562 18.4674 45.7009 20.0639C45.3455 21.6605 45.3111 23.3118 45.5996 24.9218C46.2496 28.4318 48.4096 31.9818 47.1296 35.3118C46.2696 37.5218 44.1296 38.9118 42.6696 40.8118C41.5589 42.302 40.9433 44.1029 40.9092 45.9612C40.8751 47.8195 41.4243 49.6418 42.4796 51.1718C43.9396 53.1718 46.1696 54.3118 48.2096 55.6518C51.4396 57.7818 54.3296 60.4618 57.8096 62.1718C61.2896 63.8818 65.6996 64.4318 68.8996 62.2518C72.0996 60.0718 73.2596 55.5018 72.6696 51.5518C72.0796 47.6018 70.1796 44.0018 68.6696 40.3118C66.6775 35.5034 65.2967 30.464 64.5596 25.3118C64.2696 23.2518 64.1096 21.0518 65.0796 19.2218C65.9596 17.5818 67.6096 16.5318 69.0796 15.4118C72.5836 12.7704 75.5045 9.43409 77.6596 5.61175C78.4039 7.46232 79.58 9.10808 81.0896 10.4118C83.1115 12.2904 85.3748 13.8912 87.8196 15.1718C88.0368 13.017 87.8018 10.8405 87.1296 8.78177Z" fill="#263238"/>
</svg>
