<?xml version="1.0" standalone="no"?>
<!DOCTYPE svg PUBLIC "-//W3C//DTD SVG 20010904//EN"
 "http://www.w3.org/TR/2001/REC-SVG-20010904/DTD/svg10.dtd">
<svg version="1.0" xmlns="http://www.w3.org/2000/svg"
 width="736.000000pt" height="736.000000pt" viewBox="0 0 736.000000 736.000000"
 preserveAspectRatio="xMidYMid meet">

<g transform="translate(0.000000,736.000000) scale(0.100000,-0.100000)"
fill="#000000" stroke="none">
<path d="M3602 6059 c-114 -19 -231 -96 -293 -192 -118 -183 -102 -404 41
-560 257 -280 720 -139 780 238 38 240 -134 476 -376 515 -67 11 -78 11 -152
-1z m-76 -154 c12 -8 54 -57 93 -110 40 -52 74 -95 76 -95 1 0 37 45 79 100
43 55 86 105 97 111 26 14 69 -12 69 -42 0 -11 -35 -65 -77 -120 -43 -55 -84
-109 -91 -119 -13 -17 -6 -30 66 -122 92 -120 105 -142 97 -167 -8 -25 -50
-43 -77 -32 -13 5 -57 55 -98 110 -41 55 -78 100 -82 98 -4 -1 -43 -48 -88
-104 -67 -86 -85 -103 -108 -103 -16 0 -33 5 -40 12 -26 26 -11 59 78 170 50
62 88 118 86 124 -3 7 -41 60 -85 118 -93 123 -99 144 -46 174 26 15 27 15 51
-3z"/>
<path d="M3050 4851 c0 -8 -8 -20 -17 -27 -17 -13 -17 -13 1 -14 12 0 16 -5
12 -15 -3 -9 0 -15 9 -15 8 0 15 5 15 12 0 6 7 3 16 -8 15 -19 15 -18 11 4 -4
14 0 22 9 22 8 0 14 5 14 10 0 6 -7 10 -15 10 -10 0 -12 6 -8 18 6 14 4 15 -8
5 -12 -10 -18 -10 -27 -1 -9 9 -12 9 -12 -1z"/>
<path d="M3184 4845 c3 -9 0 -15 -9 -15 -8 0 -15 -4 -15 -10 0 -5 7 -10 16
-10 11 0 14 -6 8 -22 -6 -20 -5 -21 8 -10 9 7 23 10 32 6 12 -5 15 -2 10 10
-4 11 -1 16 10 16 9 0 16 5 16 10 0 6 -7 10 -15 10 -9 0 -12 6 -9 15 7 18 -12
20 -20 3 -5 -10 -7 -10 -12 0 -8 17 -27 15 -20 -3z"/>
<path d="M3323 4848 c4 -12 1 -18 -8 -18 -8 0 -15 -4 -15 -10 0 -5 7 -10 15
-10 10 0 12 -6 8 -17 -6 -16 -5 -16 10 -4 11 9 17 10 17 2 0 -6 5 -11 11 -11
6 0 9 7 5 15 -3 9 0 15 9 15 8 0 15 5 15 10 0 6 -7 10 -15 10 -10 0 -12 6 -8
18 6 14 4 15 -8 5 -12 -10 -18 -10 -29 0 -10 10 -12 9 -7 -5z"/>
<path d="M3454 4845 c3 -9 0 -15 -9 -15 -8 0 -15 -4 -15 -10 0 -5 7 -10 16
-10 9 0 14 -6 11 -13 -3 -9 4 -14 23 -14 19 0 26 5 23 14 -3 7 2 13 11 13 9 0
16 5 16 10 0 6 -7 10 -15 10 -9 0 -12 6 -9 15 7 18 -12 20 -20 3 -5 -10 -7
-10 -12 0 -8 17 -27 15 -20 -3z"/>
<path d="M3590 4847 c0 -9 -4 -17 -10 -17 -5 0 -10 -4 -10 -10 0 -5 7 -10 15
-10 9 0 12 -6 9 -15 -4 -8 -1 -15 5 -15 6 0 11 5 11 12 0 6 7 3 16 -8 15 -19
15 -18 11 4 -4 14 0 22 9 22 8 0 14 5 14 10 0 6 -7 10 -15 10 -10 0 -12 6 -8
18 6 14 4 15 -8 5 -12 -10 -18 -10 -27 -1 -9 9 -12 8 -12 -5z"/>
<path d="M3724 4845 c3 -9 0 -15 -9 -15 -8 0 -15 -4 -15 -10 0 -5 7 -10 16
-10 9 0 14 -6 11 -13 -3 -9 4 -14 23 -14 19 0 26 5 23 14 -3 7 2 13 11 13 9 0
16 5 16 10 0 6 -7 10 -15 10 -9 0 -12 6 -9 15 7 18 -12 20 -20 3 -5 -10 -7
-10 -12 0 -8 17 -27 15 -20 -3z"/>
<path d="M3860 4847 c0 -9 -4 -17 -10 -17 -5 0 -10 -4 -10 -10 0 -5 7 -10 15
-10 9 0 12 -6 9 -15 -4 -8 -2 -15 4 -15 6 0 13 6 15 13 4 10 6 10 6 0 1 -7 6
-13 12 -13 6 0 9 7 5 15 -3 9 0 15 9 15 8 0 15 5 15 10 0 6 -4 10 -10 10 -5 0
-10 7 -10 16 0 13 -3 14 -13 5 -10 -8 -17 -7 -25 1 -9 9 -12 8 -12 -5z"/>
<path d="M3994 4845 c3 -9 0 -15 -9 -15 -8 0 -15 -4 -15 -10 0 -5 7 -10 16
-10 9 0 14 -6 11 -13 -3 -9 4 -14 23 -14 19 0 26 5 23 14 -3 7 2 13 11 13 9 0
16 5 16 10 0 6 -7 10 -15 10 -9 0 -12 6 -9 15 7 18 -12 20 -20 3 -5 -10 -7
-10 -12 0 -8 17 -27 15 -20 -3z"/>
<path d="M4130 4847 c0 -9 -4 -17 -10 -17 -5 0 -10 -4 -10 -10 0 -5 7 -10 15
-10 9 0 12 -6 9 -15 -4 -8 -1 -15 5 -15 6 0 11 5 11 12 0 6 7 3 16 -8 15 -19
15 -18 11 4 -4 14 0 22 9 22 8 0 14 5 14 10 0 6 -7 10 -15 10 -10 0 -12 6 -8
18 6 14 4 15 -8 5 -12 -10 -18 -10 -27 -1 -9 9 -12 8 -12 -5z"/>
<path d="M4264 4845 c3 -9 0 -15 -9 -15 -8 0 -15 -4 -15 -10 0 -5 7 -10 16
-10 9 0 14 -6 11 -13 -3 -9 4 -14 23 -14 19 0 26 5 23 14 -3 7 2 13 11 13 9 0
16 5 16 10 0 6 -7 10 -15 10 -9 0 -12 6 -9 15 7 18 -12 20 -20 3 -5 -10 -7
-10 -12 0 -8 17 -27 15 -20 -3z"/>
<path d="M3741 4135 c-85 -19 -152 -42 -230 -76 -41 -19 -81 -29 -111 -29 -58
0 -68 -7 -221 -157 -112 -110 -117 -113 -160 -113 -62 0 -199 17 -374 45 -431
70 -659 72 -695 5 -27 -51 108 -287 263 -462 69 -76 542 -551 779 -779 55 -53
58 -58 58 -105 0 -72 -32 -173 -87 -272 -26 -48 -54 -102 -62 -119 l-13 -33
-88 0 c-107 0 -137 -10 -146 -47 -4 -15 2 -192 15 -393 12 -201 21 -386 21
-412 l0 -48 -205 0 -205 0 0 38 0 38 40 -4 c32 -3 43 1 63 22 30 33 47 95 47
176 0 105 -42 164 -116 164 -21 0 -34 5 -34 13 0 10 -26 13 -105 13 l-105 0 0
624 0 624 -37 5 c-21 3 -141 4 -266 3 -125 -2 -230 0 -232 4 -2 3 5 96 15 205
11 110 19 215 20 233 l0 32 -126 0 -125 0 6 -52 c8 -76 35 -385 35 -408 0 -17
-8 -19 -82 -22 l-83 -3 -3 -852 -2 -853 -176 0 -175 0 3 -65 3 -65 2835 0
2835 0 3 65 3 65 -124 0 -124 0 -22 78 c-29 102 -21 147 54 306 31 65 54 123
52 130 -3 6 -9 -1 -15 -15 -6 -14 -28 -62 -51 -107 -22 -46 -48 -107 -58 -138
l-17 -55 -13 43 c-8 24 -27 94 -43 157 l-29 114 39 82 c21 45 64 114 95 154
31 40 54 75 51 78 -8 8 -99 -115 -143 -195 l-43 -77 0 42 c0 23 14 95 31 160
48 179 58 224 68 294 6 47 19 81 44 120 42 65 111 155 144 188 13 12 21 26 18
29 -8 9 -83 -76 -142 -162 l-48 -68 -7 43 c-4 24 -17 103 -28 174 -24 144 -36
300 -27 336 4 15 42 50 102 93 52 38 95 73 95 78 0 10 -27 -8 -118 -75 -29
-22 -55 -37 -58 -34 -8 8 9 56 77 226 33 80 67 178 76 219 17 72 20 76 76 119
32 25 56 47 53 50 -3 3 -22 -8 -43 -24 -63 -49 -63 -49 -58 1 3 26 7 66 10 92
3 28 1 43 -5 39 -6 -3 -10 -23 -10 -43 l0 -37 -25 40 c-13 22 -25 34 -25 28 0
-7 9 -27 20 -45 11 -19 20 -51 20 -74 0 -78 -47 -236 -125 -418 l-17 -39 -28
51 c-39 72 -119 182 -132 182 -6 0 1 -16 16 -35 57 -76 74 -102 105 -158 l33
-57 -21 -60 c-43 -124 -44 -234 -5 -435 18 -93 31 -345 18 -345 -5 1 -19 23
-32 50 -31 66 -122 204 -129 196 -3 -3 15 -37 40 -75 25 -37 62 -101 82 -141
l36 -72 -37 -142 c-56 -216 -66 -279 -53 -351 17 -98 71 -296 135 -497 5 -17
-8 -18 -175 -18 -160 0 -181 2 -181 16 0 9 6 14 13 11 19 -7 57 11 57 27 0 8
-14 24 -31 37 -29 21 -30 24 -24 73 6 46 13 58 78 123 83 85 79 98 -6 18 -31
-30 -59 -55 -61 -55 -2 0 -4 20 -4 44 0 57 -5 71 -59 189 -52 113 -52 135 -3
243 16 35 25 66 20 69 -5 3 -23 -33 -42 -81 -30 -81 -33 -85 -41 -58 -5 16
-12 104 -16 195 -7 158 -9 169 -39 234 l-32 68 35 80 c19 45 32 83 30 85 -6 6
-65 -118 -65 -135 0 -29 -18 -9 -63 68 -60 102 -91 192 -77 219 16 29 12 48
-5 26 -13 -17 -15 -18 -15 -3 0 9 -4 17 -10 17 -12 0 -13 5 5 -54 14 -45 14
-48 -3 -41 -9 4 -28 9 -42 12 -17 3 -10 -4 21 -21 34 -18 51 -36 62 -63 9 -21
45 -87 81 -148 36 -60 63 -111 61 -113 -1 -2 -26 9 -55 23 -29 14 -54 24 -57
22 -5 -5 77 -52 108 -62 32 -11 41 -50 48 -216 l6 -156 -64 58 c-92 85 -95 72
-4 -19 67 -66 81 -87 100 -142 11 -36 40 -107 62 -159 23 -51 40 -95 38 -97
-2 -2 -18 16 -35 40 -33 46 -112 115 -112 98 0 -5 16 -23 36 -40 63 -54 114
-131 114 -172 0 -56 -12 -130 -21 -130 -4 0 -30 31 -58 70 -28 38 -54 70 -56
70 -6 0 18 -45 41 -77 16 -23 16 -23 -15 -12 -17 6 -34 15 -37 20 -3 5 -13 9
-22 9 -9 0 -30 7 -46 15 -15 8 -38 15 -50 15 -11 0 -32 12 -45 25 -27 29 -28
29 -194 10 -71 -8 -134 -12 -140 -8 -15 9 -391 264 -396 269 -2 2 2 38 9 81
14 93 61 245 225 743 198 600 209 646 164 704 l-20 26 -415 0 -414 0 0 83 c0
177 -86 420 -225 633 -99 153 -162 194 -305 200 -51 2 -110 -2 -149 -11z m119
-105 c0 -6 -29 -10 -67 -10 -62 -1 -183 -18 -240 -36 -14 -4 -23 -2 -23 4 0 9
87 32 170 45 54 9 160 7 160 -3z m-460 -19 c0 -5 -14 -14 -30 -21 -17 -7 -56
-30 -88 -52 -56 -40 -57 -40 -27 -8 61 66 145 113 145 81z m666 -113 c77 -72
160 -173 208 -253 37 -62 42 -75 27 -75 -5 0 -14 14 -22 32 -31 74 -208 278
-311 358 -16 12 -28 26 -28 31 0 14 52 -24 126 -93z m-572 67 c-18 -14 -44
-20 -44 -10 0 7 54 34 59 29 3 -2 -4 -11 -15 -19z m442 -121 c20 -36 34 -68
30 -71 -3 -4 -7 -4 -9 -2 -9 11 -77 138 -77 144 0 17 23 -12 56 -71z m-171 47
c-3 -5 -20 -12 -38 -16 -17 -4 -40 -9 -49 -11 -10 -3 -18 -1 -18 4 0 6 17 14
38 20 49 13 75 14 67 3z m-170 -40 c3 -6 -27 -19 -67 -31 -193 -55 -338 -115
-357 -147 -10 -17 -10 -17 -11 -1 0 31 79 72 254 130 94 31 172 57 173 58 1 0
4 -4 8 -9z m188 -63 c4 -40 10 -89 13 -108 l7 -35 -37 33 c-21 18 -48 32 -63
32 l-25 0 35 -40 c20 -21 46 -58 58 -82 19 -37 23 -40 33 -26 10 14 15 5 30
-55 9 -40 42 -153 73 -252 74 -239 69 -219 50 -212 -8 3 -21 -1 -28 -10 -10
-11 -25 -14 -56 -10 -27 3 -64 -3 -100 -15 -83 -27 -249 -51 -311 -44 -103 12
-128 38 -163 173 -31 123 -26 236 15 358 18 55 37 121 40 146 l7 45 202 86
c111 47 205 86 208 87 3 1 9 -32 12 -71z m-1368 36 c66 -8 190 -26 275 -40 85
-14 203 -28 261 -31 97 -5 110 -4 135 14 l29 21 0 -52 c0 -28 2 -58 5 -66 4
-12 -5 -16 -40 -17 -25 -2 -79 -8 -120 -13 -92 -13 -358 -37 -500 -45 -117 -8
-176 2 -254 41 -27 14 -44 18 -37 10 20 -24 107 -56 188 -67 68 -10 83 -16
115 -47 37 -35 37 -35 20 -64 -26 -46 -115 -125 -167 -150 l-47 -23 -60 65
c-82 90 -188 251 -226 342 -38 92 -39 101 -8 117 63 34 199 36 431 5z m1656
-234 c80 -157 147 -318 160 -383 15 -74 -6 -143 -74 -242 -92 -134 -98 -147
-93 -185 5 -32 4 -34 -9 -16 -8 11 -15 24 -15 28 0 22 32 80 75 139 64 86 105
174 105 225 0 22 -9 70 -21 105 -23 71 -122 288 -177 388 -20 35 -30 62 -22
59 7 -2 39 -55 71 -118z m-903 7 c17 -23 50 -61 75 -84 l45 -41 -14 -53 c-8
-29 -14 -74 -14 -100 0 -74 29 -219 54 -275 l24 -52 -30 -22 -30 -22 -89 32
-89 32 -37 77 c-35 69 -41 76 -71 79 -28 3 -37 11 -63 57 -38 68 -45 73 -109
85 -68 13 -99 31 -223 134 -107 88 -157 136 -141 136 32 0 469 42 514 49 30 5
81 9 112 10 56 1 57 1 86 -42z m1178 -132 c5 -34 3 -47 -4 -40 -5 6 -13 33
-17 60 -5 36 -4 47 4 40 6 -6 14 -33 17 -60z m-1731 -55 c98 -80 142 -105 202
-115 53 -8 66 -19 106 -85 28 -47 37 -55 62 -55 27 0 33 -7 70 -80 l40 -80 65
-22 c86 -30 160 -64 160 -75 0 -4 -4 -8 -9 -8 -15 0 -68 -112 -95 -200 -71
-234 -82 -397 -36 -528 19 -54 20 -67 10 -93 l-12 -29 -140 0 -140 0 43 78
c80 145 99 187 115 260 9 40 14 85 11 100 -15 83 -102 404 -105 385 -2 -11 9
-65 23 -118 15 -53 25 -98 23 -100 -2 -2 -35 67 -72 153 -65 148 -86 190 -86
166 0 -6 36 -93 80 -194 44 -101 78 -185 76 -187 -3 -3 -165 154 -360 348
l-356 352 52 29 c56 31 154 121 164 150 3 10 9 18 13 18 5 0 48 -32 96 -70z
m2583 -199 c2 -1 -16 -24 -41 -51 -83 -96 -132 -221 -212 -540 -68 -272 -165
-770 -165 -846 0 -51 -49 -9 -80 69 -12 32 -33 66 -46 76 -13 10 -24 29 -24
42 0 13 -12 35 -27 51 l-26 27 16 52 c10 28 17 71 17 96 0 99 -88 295 -246
547 -67 107 -94 159 -94 182 0 22 18 59 59 120 33 49 67 108 76 131 l17 42 86
4 c71 2 679 1 690 -2z m-1222 -256 c10 -72 -17 -113 -52 -78 -18 19 -15 95 7
135 11 21 12 21 25 3 7 -10 16 -37 20 -60z m-267 -27 c-11 -29 -24 -73 -29
-98 -8 -47 -109 -422 -116 -429 -10 -11 -122 2 -158 18 -73 32 -73 28 -31 238
20 104 44 212 52 241 l14 52 62 1 c34 0 96 6 137 13 41 8 78 14 82 15 4 0 -2
-23 -13 -51z m22 -5 c-28 -73 -32 -80 -26 -52 5 30 33 99 40 99 3 0 -4 -21
-14 -47z m-335 -48 c18 -46 -157 -735 -187 -735 -4 0 -16 26 -26 58 -22 74
-21 203 1 311 23 110 80 288 106 329 29 46 94 69 106 37z m-1856 -885 l0 -850
-165 0 -165 0 0 850 0 850 165 0 165 0 0 -850z m60 0 c0 -843 0 -850 -20 -850
-20 0 -20 7 -20 850 0 843 0 850 20 850 20 0 20 -7 20 -850z m400 825 l0 -25
-195 0 c-182 0 -195 1 -195 18 0 10 3 22 7 25 3 4 91 7 195 7 l188 0 0 -25z
m51 13 c-1 -5 -1 -282 -1 -618 0 -536 -2 -610 -15 -610 -13 0 -15 76 -15 621
0 556 2 620 16 617 8 -2 15 -6 15 -10z m1706 -118 c59 -112 13 -272 -148 -512
-63 -93 -79 -110 -79 -81 0 74 100 492 155 652 8 22 46 -9 72 -59z m-2089 23
c-2 -9 -13 -18 -25 -19 -17 -3 -23 1 -23 16 0 15 7 20 26 20 18 0 25 -5 22
-17z m122 2 c0 -29 -102 -32 -108 -2 -3 14 5 17 52 17 43 0 56 -4 56 -15z
m110 0 c0 -16 -4 -17 -45 -17 -41 0 -45 1 -45 17 0 11 12 15 45 15 33 0 45 -4
45 -15z m58 -2 c-4 -24 -38 -26 -38 -2 0 13 7 19 21 19 14 0 19 -5 17 -17z
m1921 -28 c53 -13 130 -29 171 -35 41 -6 100 -18 130 -26 62 -17 51 -3 168
-224 36 -68 89 -174 117 -235 39 -86 61 -120 98 -154 37 -35 47 -50 47 -76 0
-23 5 -34 18 -37 16 -5 63 -80 76 -123 5 -19 0 -22 -51 -33 -88 -18 -158 -55
-224 -119 -35 -33 -63 -53 -67 -47 -4 6 -29 44 -55 86 l-48 76 7 105 c4 57 4
116 1 129 -8 32 -45 48 -112 48 -54 0 -55 1 -81 43 -33 52 -33 52 -40 44 -3
-3 6 -23 20 -44 l26 -38 -140 -3 c-77 -1 -203 -1 -281 0 l-140 3 57 80 c188
262 255 442 210 568 -8 20 -11 37 -8 37 3 0 48 -11 101 -25z m-2211 -137 c-3
-129 -4 -133 -25 -136 -23 -3 -23 -3 -23 132 l0 136 25 0 26 0 -3 -132z m122
-4 l0 -135 -52 3 -53 3 -3 133 -3 132 56 0 55 0 0 -136z m108 4 l-3 -133 -42
-3 -43 -3 0 135 0 136 45 0 46 0 -3 -132z m60 0 c-3 -117 -5 -133 -20 -136
-16 -3 -18 8 -18 132 0 130 1 136 20 136 20 0 20 -5 18 -132z m1492 -177 c25
-6 60 -11 79 -11 31 0 33 -2 27 -27 -16 -76 -46 -258 -46 -284 l0 -29 -155 0
c-85 0 -155 4 -155 8 0 5 18 55 39 113 22 57 52 145 67 196 l27 91 36 -23 c20
-13 56 -29 81 -34z m-1780 9 c0 -15 -7 -20 -25 -20 -18 0 -25 5 -25 20 0 15 7
20 25 20 18 0 25 -5 25 -20z m120 0 c0 -18 -7 -20 -55 -20 -48 0 -55 2 -55 20
0 18 7 20 55 20 48 0 55 -2 55 -20z m110 0 c0 -17 -7 -20 -45 -20 -38 0 -45 3
-45 20 0 17 7 20 45 20 38 0 45 -3 45 -20z m60 0 c0 -13 -7 -20 -18 -20 -24 0
-32 8 -25 26 8 22 43 17 43 -6z m-292 -77 c3 -40 1 -43 -22 -43 -24 0 -26 3
-26 46 0 41 2 45 23 42 18 -2 23 -10 25 -45z m122 2 l0 -45 -55 0 -55 0 0 38
c0 21 3 42 7 45 3 4 28 7 55 7 l48 0 0 -45z m110 0 l0 -45 -45 0 -45 0 0 45 0
45 45 0 45 0 0 -45z m58 -3 c3 -37 1 -42 -17 -42 -18 0 -21 6 -21 46 0 38 3
45 18 42 12 -2 18 -15 20 -46z m52 -82 c0 -19 -7 -20 -195 -20 -188 0 -195 1
-195 20 0 19 7 20 195 20 188 0 195 -1 195 -20z m-347 -97 c-7 -2 -21 -2 -30
0 -10 3 -4 5 12 5 17 0 24 -2 18 -5z m105 0 c-15 -2 -42 -2 -60 0 -18 2 -6 4
27 4 33 0 48 -2 33 -4z m115 0 c-13 -2 -35 -2 -50 0 -16 2 -5 4 22 4 28 0 40
-2 28 -4z m64 1 c-3 -3 -12 -4 -19 -1 -8 3 -5 6 6 6 11 1 17 -2 13 -5z m-277
-34 c0 -15 -7 -20 -25 -20 -18 0 -25 5 -25 20 0 15 7 20 25 20 18 0 25 -5 25
-20z m120 0 c0 -18 -7 -20 -55 -20 -39 0 -55 4 -55 13 0 22 11 27 62 27 41 0
48 -3 48 -20z m110 0 c0 -17 -7 -20 -45 -20 -38 0 -45 3 -45 20 0 17 7 20 45
20 38 0 45 -3 45 -20z m60 0 c0 -13 -7 -20 -20 -20 -13 0 -20 7 -20 20 0 13 7
20 20 20 13 0 20 -7 20 -20z m-290 -170 l0 -130 -25 0 -25 0 0 130 0 130 25 0
25 0 0 -130z m120 0 l0 -130 -55 0 -55 0 0 130 0 130 55 0 55 0 0 -130z m110
0 l0 -130 -45 0 -45 0 0 130 0 130 45 0 45 0 0 -130z m60 0 c0 -123 -1 -130
-20 -130 -19 0 -20 7 -20 130 0 123 1 130 20 130 19 0 20 -7 20 -130z m764 71
c3 -5 -5 -11 -17 -15 -13 -3 -29 -16 -35 -28 l-11 -23 0 22 c-1 12 9 29 21 37
26 18 35 20 42 7z m1516 -11 c11 -11 20 -30 20 -42 0 -24 -7 -20 -24 14 l-12
23 -727 3 c-473 1 -727 6 -727 12 0 7 252 10 725 10 712 0 725 0 745 -20z
m-2572 -227 c-2 -10 -13 -19 -26 -21 -17 -3 -22 2 -22 17 0 16 6 21 26 21 19
0 25 -5 22 -17z m120 0 c-3 -14 -14 -18 -53 -18 -39 0 -50 4 -53 18 -3 14 5
17 53 17 48 0 56 -2 53 -17z m110 0 c-2 -14 -14 -18 -46 -19 -35 -2 -42 1 -42
17 0 16 8 19 46 19 38 0 45 -3 42 -17z m60 0 c-3 -17 -38 -26 -38 -10 0 4 0
12 0 17 0 6 9 10 21 10 14 0 19 -5 17 -17z m3028 -191 c142 -98 265 -182 273
-186 7 -5 75 -3 150 4 76 7 148 10 162 7 28 -8 88 -85 130 -169 35 -69 36 -88
7 -88 -14 0 -46 26 -91 74 -38 41 -74 73 -80 71 -7 -2 -31 -9 -54 -15 -24 -6
-43 -14 -43 -18 0 -5 29 -28 65 -51 65 -43 74 -54 55 -66 -14 -9 -130 10 -263
42 -104 24 -109 27 -145 70 -20 25 -50 51 -65 60 -16 8 -162 59 -325 114 -289
98 -372 131 -372 148 0 17 97 104 143 127 49 25 136 52 173 53 11 1 137 -79
280 -177z m-3316 113 c0 -41 -2 -45 -25 -45 -23 0 -25 4 -25 45 0 41 2 45 25
45 23 0 25 -4 25 -45z m120 0 l0 -45 -55 0 -55 0 0 45 0 45 55 0 55 0 0 -45z
m110 0 l0 -45 -45 0 -45 0 0 45 0 45 45 0 45 0 0 -45z m60 0 c0 -38 -3 -45
-20 -45 -17 0 -20 7 -20 45 0 38 3 45 20 45 17 0 20 -7 20 -45z m2460 -156
c30 -14 113 -46 183 -70 l129 -44 -6 -95 c-4 -52 -9 -116 -12 -142 l-6 -48
-239 0 -239 0 0 76 c0 84 17 394 26 463 l6 43 51 -78 c44 -66 61 -82 107 -105z
m-888 74 c67 -61 -65 -125 -149 -73 -35 21 -40 36 -20 63 27 38 132 44 169 10z
m-1524 5 c-3 -7 -24 -14 -49 -16 -24 -2 -48 -7 -54 -12 -5 -4 -72 -9 -147 -9
l-138 -2 0 26 0 25 196 0 c152 0 195 -3 192 -12z m252 -253 l0 -225 -170 0
-170 0 0 225 0 225 170 0 170 0 0 -225z m109 179 c50 -36 66 -141 36 -242 -19
-62 -49 -87 -95 -77 -23 5 -30 12 -30 30 0 21 4 24 32 22 29 -2 34 2 45 33 16
46 16 139 0 170 -10 19 -21 25 -45 25 -28 0 -32 3 -32 27 0 25 4 28 33 28 18
0 43 -7 56 -16z m-31 -57 c19 -23 25 -94 12 -146 -11 -47 -14 -51 -41 -51
l-29 0 0 99 c0 98 3 108 36 110 6 1 16 -5 22 -12z m-668 -12 c0 -9 -9 -15 -25
-15 -16 0 -25 6 -25 15 0 9 9 15 25 15 16 0 25 -6 25 -15z m120 0 c0 -12 -13
-15 -55 -15 -42 0 -55 3 -55 15 0 12 13 15 55 15 42 0 55 -3 55 -15z m110 0
c0 -11 -12 -15 -45 -15 -33 0 -45 4 -45 15 0 11 12 15 45 15 33 0 45 -4 45
-15z m-232 -127 l3 -98 -26 0 -25 0 0 101 c0 98 0 100 23 97 21 -3 22 -8 25
-100z m122 2 l0 -100 -55 0 -55 0 0 93 c0 52 3 97 7 100 3 4 28 7 55 7 l48 0
0 -100z m110 0 l0 -100 -45 0 -45 0 0 100 0 100 45 0 45 0 0 -100z m3065 -1
c107 -38 121 -46 169 -96 52 -54 55 -56 167 -83 l114 -28 -298 -1 -297 -1 6
113 c6 111 9 137 18 137 3 0 57 -19 121 -41z m732 -14 c37 -47 104 -175 97
-186 -9 -15 -44 -10 -44 6 0 17 -57 131 -91 183 -30 46 1 44 38 -3z m66 -12
c23 -26 97 -156 97 -170 0 -7 -11 -13 -24 -13 -18 0 -26 7 -31 28 -3 15 -24
58 -46 95 -21 38 -39 71 -39 73 0 11 29 2 43 -13z m118 -67 c67 -45 87 -76 49
-76 -35 0 -75 27 -103 69 -44 67 -34 68 54 7z m-319 7 c29 -26 22 -32 -29 -26
-51 5 -76 19 -52 27 8 2 21 7 29 9 26 9 33 8 52 -10z m-3892 -48 c0 -9 -9 -15
-25 -15 -16 0 -25 6 -25 15 0 9 9 15 25 15 16 0 25 -6 25 -15z m120 0 c0 -12
-13 -15 -55 -15 -42 0 -55 3 -55 15 0 12 13 15 55 15 42 0 55 -3 55 -15z m110
0 c0 -11 -12 -15 -45 -15 -33 0 -45 4 -45 15 0 11 12 15 45 15 33 0 45 -4 45
-15z m3739 -36 l33 -39 -46 0 c-39 0 -46 3 -46 19 0 11 -15 28 -32 40 l-33 21
45 -1 c40 -1 49 -5 79 -40z m-1426 10 c14 -51 51 -49 -759 -49 l-754 0 0 35 0
35 754 0 754 0 5 -21z m-2543 -9 c0 -5 -11 -10 -25 -10 -14 0 -25 5 -25 10 0
6 11 10 25 10 14 0 25 -4 25 -10z m120 0 c0 -5 -22 -10 -50 -10 -27 0 -50 5
-50 10 0 6 23 10 50 10 28 0 50 -4 50 -10z m110 0 c0 -5 -20 -10 -45 -10 -25
0 -45 5 -45 10 0 6 20 10 45 10 25 0 45 -4 45 -10z m3990 -16 c0 -14 -3 -14
-15 -4 -8 7 -15 14 -15 16 0 2 7 4 15 4 8 0 15 -7 15 -16z"/>
<path d="M3455 3664 c-34 -32 -21 -43 24 -20 16 9 42 16 56 16 40 0 25 24 -16
28 -27 2 -42 -3 -64 -24z"/>
<path d="M3453 3588 c-13 -18 -16 -88 -3 -88 6 0 13 14 17 30 7 36 10 36 41 8
l25 -23 -12 23 c-7 13 -23 28 -36 34 -14 6 -22 15 -19 19 8 14 -2 11 -13 -3z"/>
<path d="M3560 3551 c0 -34 -9 -52 -60 -114 -33 -41 -60 -82 -60 -92 0 -21 18
-55 30 -55 5 0 2 13 -8 29 -16 29 -16 30 18 73 19 24 46 59 62 78 29 37 49
120 29 120 -6 0 -11 -17 -11 -39z"/>
<path d="M3696 3494 c-9 -25 -7 -74 4 -74 5 0 12 11 16 25 8 32 28 27 32 -8 5
-41 17 -32 17 12 0 32 -4 42 -23 50 -31 15 -39 14 -46 -5z"/>
<path d="M3410 3210 c-11 -11 -20 -24 -20 -30 0 -5 11 2 25 16 32 32 44 28 72
-22 25 -43 32 -30 8 15 -23 45 -54 52 -85 21z"/>
<path d="M4139 2528 c-44 -61 -82 -128 -76 -134 3 -3 21 22 42 56 20 33 48 74
62 90 14 17 20 30 14 30 -6 0 -25 -19 -42 -42z"/>
<path d="M4028 2310 c-7 -24 -3 -38 8 -28 3 4 4 17 2 30 l-3 23 -7 -25z"/>
<path d="M4464 1956 c-41 -43 -123 -191 -111 -202 3 -3 23 29 44 71 41 83 83
139 115 156 20 11 21 9 15 -20 -8 -37 8 -42 17 -6 15 60 -23 60 -80 1z"/>
<path d="M4498 1855 c-44 -35 -117 -125 -101 -125 5 0 26 23 48 51 21 28 61
63 89 80 35 20 45 29 30 29 -11 0 -41 -16 -66 -35z"/>
<path d="M4356 1684 c-11 -28 -6 -38 9 -18 8 10 15 22 15 27 0 13 -18 7 -24
-9z"/>
</g>
</svg>
