<svg width="24" height="24" viewBox="0 0 24 24" fill="none" xmlns="http://www.w3.org/2000/svg">
<path d="M23.5972 14.8766L20.6342 20.0883C20.0535 21.1234 18.975 21.665 17.8846 21.5928H15.5142V24L12.5512 18.5838L15.5142 13.1675V15.5747H18.8564L16.2253 10.9408L21.3572 7.93179L23.4905 11.6871C24.1069 12.6138 24.1898 13.8536 23.5972 14.8766ZM8.65192 0H14.5779C15.7394 0 16.7468 0.686058 17.2327 1.67302L18.4179 3.7673L20.4683 2.56369L17.3394 7.87161L11.2356 7.97994L13.286 6.77633L11.6149 3.82748L8.99562 8.46138L3.85188 5.45236L5.98523 1.69709C6.47116 0.698094 7.47858 0 8.65192 0ZM3.72151 20.1003L0.758524 14.8887C0.177779 13.8656 0.260743 12.6379 0.865192 11.7111L2.05039 9.62889L0 8.42528L6.0919 8.52156L9.23266 13.8415L7.18228 12.6379L5.51115 15.5747H10.7734V21.5928H6.50672C5.95146 21.6336 5.39607 21.5153 4.9037 21.2515C4.41133 20.9877 4.00174 20.5888 3.72151 20.1003Z" fill="#14AE5C"/>
</svg>
