<svg width="109" height="192" viewBox="0 0 109 192" fill="none" xmlns="http://www.w3.org/2000/svg">
<path d="M99.5769 0.432526C99.5769 0.432526 89.3669 -4.56747 80.7469 19.4325C72.1269 43.4325 69.4269 56.9525 69.4269 56.9525C69.4269 56.9525 66.9969 62.0525 63.3569 59.3825C59.7169 56.7125 54.1769 48.5225 48.8669 50.7925C43.3569 53.1525 42.2869 59.7925 44.5669 69.0025C46.8469 78.2125 51.0969 98.6425 51.4769 100.493C51.8569 102.343 51.1369 105.133 48.3669 103.713C45.5969 102.293 28.8969 87.8425 22.5169 96.1825C16.1369 104.523 26.7069 129.183 27.8169 131.913C28.9269 134.643 28.5169 135.913 27.2669 136.773C26.0169 137.633 20.8669 132.253 15.9469 128.343C11.0269 124.433 4.62688 120.753 1.35688 125.873C-1.91312 130.993 -0.723139 150.363 21.5269 179.253L32.6669 191.913L49.3969 188.843C84.7869 180.083 97.7869 165.673 98.3969 159.623C99.0069 153.573 91.7269 152.473 85.4469 152.473C79.1669 152.473 71.7669 153.473 71.3269 152.023C70.8869 150.573 71.3769 149.323 73.9269 147.883C76.4769 146.443 100.127 133.713 100.327 123.213C100.527 112.713 78.4569 113.623 75.4069 113.013C72.3569 112.403 73.5569 109.753 74.9769 108.563C76.3969 107.373 92.4569 94.0225 99.9769 88.2125C107.497 82.4025 110.787 76.5625 107.977 71.2925C105.237 66.2025 95.7969 69.1525 91.2969 68.9825C86.7969 68.8125 88.0569 63.3025 88.0569 63.3025C88.0569 63.3025 94.3769 51.0325 102.557 26.8925C110.737 2.75253 99.3269 0.34253 99.3269 0.34253" fill="#E0E0E0"/>
</svg>
