<svg width="403" height="266" viewBox="0 0 403 266" fill="none" xmlns="http://www.w3.org/2000/svg">
<path d="M85.3693 101.964C99.6293 87.8936 99.7093 66.2736 95.8493 47.5136C95.1993 44.3836 94.9793 41.0036 93.0093 38.5136C91.0393 36.0236 87.2193 34.7136 84.6293 36.5136C82.4793 38.0136 81.9193 40.9136 80.9993 43.3836C79.7619 46.6825 77.6201 49.566 74.8193 51.7036C72.9893 53.0836 70.6193 54.1436 68.4493 53.3936C65.4493 52.3936 64.5093 48.6636 63.9993 45.5236L61.1193 27.9936C60.7663 24.8276 59.9088 21.7385 58.5793 18.8436C57.0993 16.0436 54.4693 13.6436 51.3493 13.3236C48.2293 13.0036 44.8393 15.3236 44.7293 18.5136C44.833 19.8319 45.0268 21.1417 45.3093 22.4336C45.4393 23.7536 45.0793 25.2936 43.9093 25.8636C42.7393 26.4336 41.3193 25.7736 40.2193 25.0136C36.4493 22.4036 33.5593 18.7036 30.8193 15.0136C28.0793 11.3236 25.3693 7.50358 21.8193 4.55358C18.2693 1.60358 13.8193 -0.446425 9.23931 0.0835754C4.65931 0.613575 0.409309 4.17358 0.0293091 8.77358C-0.350691 13.3736 3.02931 17.4236 6.39931 20.5236C11.4774 25.1082 17.1894 28.9375 23.3593 31.8936C24.5293 32.3011 25.5384 33.0719 26.2393 34.0936C27.2393 36.0936 25.6593 38.4836 23.7093 39.5136C21.5093 40.6936 18.9393 40.8836 16.5393 41.5936C14.1393 42.3036 11.6893 43.8236 11.1593 46.2936C10.4193 49.7136 13.6693 52.6136 16.6793 54.3536C22.71 57.8587 29.2998 60.2977 36.1593 61.5636C38.6093 62.0136 41.1593 62.3336 43.2893 63.6336C45.4193 64.9336 47.0293 67.5636 46.2893 69.9636C45.5493 72.3636 42.7793 73.5636 40.2893 73.5236C37.7993 73.4836 35.4093 72.5236 32.9693 72.0736C28.3793 71.1836 22.8793 72.4336 20.7493 76.6236C20.1276 78.0487 19.8446 79.5986 19.9227 81.1515C20.0008 82.7043 20.4378 84.218 21.1993 85.5736C22.7285 88.2646 24.7824 90.6212 27.2393 92.5036C35.4646 99.5301 45.4056 104.25 56.0493 106.184C66.6193 107.934 76.0493 107.294 85.3393 101.964" fill="#EBEBEB"/>
<path d="M3.84937 3.68358C3.95671 3.77925 4.07405 3.86307 4.19936 3.93358L5.26936 4.60358C6.21936 5.18358 7.60936 6.05358 9.36936 7.21358C14.3632 10.4744 19.1034 14.1081 23.5494 18.0836C26.3694 20.5836 29.3594 23.4536 32.5494 26.6036C35.7394 29.7536 39.0294 33.1336 42.4094 36.8236C45.9566 40.6648 49.2948 44.6939 52.4094 48.8936C54.0194 51.0836 55.5294 53.4036 57.0594 55.7736L61.7094 62.9736C67.6649 72.091 73.1035 81.5359 77.9994 91.2636C81.9745 99.2135 85.192 107.52 87.6094 116.074C89.2244 121.846 90.3353 127.749 90.9294 133.714C91.1194 135.824 91.2394 137.474 91.2794 138.594C91.2794 139.124 91.3294 139.544 91.3494 139.864C91.3391 140.007 91.3391 140.15 91.3494 140.294C91.3644 140.151 91.3644 140.007 91.3494 139.864C91.3494 139.544 91.3494 139.124 91.3494 138.584C91.3494 137.464 91.2594 135.814 91.1094 133.694C90.5982 127.7 89.5439 121.766 87.9594 115.964C85.5887 107.364 82.3973 99.0126 78.4294 91.0236C73.5411 81.2782 68.0954 71.8225 62.1194 62.7036L57.4694 55.5036C55.9294 53.1436 54.4094 50.8036 52.7794 48.6036C49.6696 44.3695 46.3208 40.3162 42.7494 36.4636C39.3594 32.7636 35.9994 29.3836 32.8394 26.2636C29.6794 23.1436 26.6694 20.2636 23.8394 17.7736C19.3492 13.816 14.5544 10.2182 9.49937 7.01358C7.70937 5.88358 6.29936 5.01358 5.32936 4.50358L4.23936 3.88358C4.11479 3.80683 3.98439 3.73995 3.84937 3.68358Z" fill="#E0E0E0"/>
<path d="M52.6692 48.5536C52.7412 48.0973 52.7647 47.6348 52.7392 47.1736C52.7392 46.2736 52.7392 44.9836 52.7392 43.3836C52.6492 40.1936 52.3792 35.7836 52.0592 30.9236C51.7392 26.0636 51.5192 21.6636 51.4792 18.4736C51.4792 16.8836 51.4792 15.5936 51.4792 14.7036C51.51 14.2394 51.4899 13.7733 51.4192 13.3136C51.3119 13.7659 51.2549 14.2287 51.2492 14.6936C51.1692 15.5836 51.1192 16.8736 51.0892 18.4736C51.0292 21.6736 51.1692 26.0936 51.4992 30.9636C51.8292 35.8336 52.1192 40.0836 52.3492 43.4036C52.4492 44.9036 52.5192 46.1636 52.5892 47.1736C52.5541 47.6351 52.581 48.0992 52.6692 48.5536Z" fill="#E0E0E0"/>
<path d="M11.0994 47.9136C11.6473 47.9381 12.1964 47.9113 12.7394 47.8336C13.7394 47.7436 15.3094 47.6136 17.1894 47.5136C20.9494 47.2836 26.1894 47.1436 31.8894 47.2436C37.5894 47.3436 42.8294 47.6636 46.5894 48.0036C48.4594 48.1636 49.9794 48.3336 51.0294 48.4436C51.5713 48.5319 52.1205 48.5687 52.6694 48.5536C52.1442 48.3913 51.6053 48.2775 51.0594 48.2136C50.0594 48.0336 48.4994 47.8036 46.6294 47.5936C42.8694 47.1436 37.6294 46.7536 31.8994 46.6536C26.9817 46.5479 22.0619 46.6948 17.1594 47.0936C15.2794 47.2536 13.7594 47.4436 12.7194 47.6036C12.1709 47.656 11.6285 47.7598 11.0994 47.9136Z" fill="#E0E0E0"/>
<path d="M77.8594 90.3136C77.9462 90.1427 78.0101 89.9611 78.0494 89.7736C78.1694 89.3536 78.3094 88.8336 78.4894 88.2036C78.8694 86.8336 79.3594 84.8336 79.9294 82.3636C81.0894 77.4136 82.4694 70.5336 83.9294 62.9236C85.3894 55.3136 86.6594 48.4136 87.7094 43.4536C88.2294 41.0436 88.6594 39.0536 88.9694 37.5836C89.1094 36.9436 89.2194 36.4136 89.3094 35.9736C89.3617 35.7917 89.3853 35.6027 89.3794 35.4136C89.2983 35.5868 89.2346 35.7677 89.1894 35.9536C89.0694 36.3736 88.9294 36.8936 88.7494 37.5236C88.3794 38.8936 87.8894 40.8836 87.3094 43.3636C86.1494 48.3036 84.7694 55.1936 83.3094 62.8036C81.8494 70.4136 80.5794 77.2636 79.5294 82.2636C79.0094 84.6736 78.5894 86.6636 78.2694 88.1336L77.9394 89.7336C77.8873 89.9226 77.8604 90.1176 77.8594 90.3136Z" fill="#E0E0E0"/>
<path d="M21.3894 82.2636C21.574 82.3279 21.7652 82.3715 21.9594 82.3936L23.5994 82.6436L29.5994 83.5236C34.7094 84.2636 41.7494 85.3736 49.5294 86.6036C57.3094 87.8336 64.3694 88.8836 69.5294 89.5136C72.0894 89.8336 74.1594 90.0736 75.5994 90.2036L77.2394 90.2636C77.4317 90.2917 77.6271 90.2917 77.8194 90.2636C77.6348 90.1993 77.4436 90.1557 77.2494 90.1336L75.6094 89.8836L69.6094 89.0036C64.4994 88.2636 57.4594 87.1536 49.6794 85.9236C41.8994 84.6936 34.8394 83.6436 29.6794 83.0036C27.1094 82.6936 25.0394 82.4536 23.5994 82.3136L21.9694 82.2636C21.7771 82.2354 21.5817 82.2354 21.3894 82.2636Z" fill="#E0E0E0"/>
<path d="M392.39 70.1136C392.39 70.1136 392.39 70.2936 392.24 70.6236C392.09 70.9536 391.97 71.4836 391.76 72.1236C391.33 73.4436 390.69 75.3736 389.87 77.8436C388.23 82.8436 385.79 89.9736 382.75 98.8436C376.67 116.544 368.06 140.924 358.48 167.844C348.9 194.764 340.24 219.054 334.06 236.724C330.99 245.544 328.5 252.724 326.78 257.654L324.78 263.344C324.55 263.974 324.38 264.464 324.25 264.814C324.12 265.164 324.06 265.314 324.06 265.314C324.06 265.314 324.06 265.134 324.2 264.804C324.34 264.474 324.48 263.944 324.68 263.304C325.12 261.974 325.76 260.054 326.57 257.584C328.22 252.584 330.65 245.454 333.7 236.584C339.78 218.884 348.38 194.504 357.97 167.584C367.56 140.664 376.22 116.334 382.39 98.6636C385.46 89.8436 387.94 82.6636 389.67 77.7336C390.53 75.2836 391.19 73.3636 391.67 72.0436C391.9 71.4136 392.08 70.9236 392.2 70.5736C392.32 70.2236 392.39 70.1136 392.39 70.1136Z" fill="#EBEBEB"/>
<path d="M356.739 110.734C356.977 111.066 357.168 111.43 357.309 111.814C357.649 112.524 358.109 113.574 358.659 114.814C359.759 117.404 361.189 121.014 362.659 125.034L366.479 135.334C366.939 136.564 367.339 137.604 367.649 138.444C367.82 138.815 367.951 139.204 368.039 139.604C367.808 139.265 367.613 138.903 367.459 138.524C367.129 137.814 366.669 136.764 366.129 135.464C365.049 132.864 363.669 129.234 362.129 125.214C360.589 121.194 359.279 117.684 358.239 114.954L357.049 111.844C356.912 111.484 356.809 111.112 356.739 110.734Z" fill="#EBEBEB"/>
<path d="M369.66 139.754C369.6 139.624 376.92 136.344 386.01 132.434C395.1 128.524 402.51 125.434 402.57 125.604C402.63 125.774 395.31 129.014 386.22 132.924C377.13 136.834 369.72 139.884 369.66 139.754Z" fill="#EBEBEB"/>
<path d="M353.069 180.394C353.471 180.283 353.883 180.213 354.299 180.184L357.679 179.764C360.519 179.414 364.449 178.904 368.759 178.184C373.069 177.464 376.959 176.704 379.759 176.114L383.089 175.424C383.492 175.318 383.904 175.251 384.319 175.224C383.944 175.406 383.548 175.54 383.139 175.624C382.359 175.844 381.239 176.144 379.839 176.474C377.049 177.154 373.169 177.994 368.839 178.704C364.509 179.414 360.569 179.874 357.699 180.134C356.269 180.264 355.109 180.354 354.309 180.384C353.898 180.434 353.482 180.437 353.069 180.394Z" fill="#EBEBEB"/>
<path d="M335.609 156.714C335.899 156.972 336.16 157.26 336.389 157.574L338.389 160.024C340.029 162.114 341.619 165.844 344.709 168.234C347.149 171.464 349.339 174.404 350.899 176.544L352.729 179.104C352.975 179.409 353.18 179.745 353.339 180.104C353.052 179.846 352.794 179.558 352.569 179.244C352.029 178.574 351.379 177.754 350.569 176.794C348.929 174.704 346.699 171.794 344.259 168.574C341.819 165.354 339.619 162.414 338.059 160.274L336.239 157.694C335.991 157.393 335.78 157.064 335.609 156.714Z" fill="#EBEBEB"/>
<path d="M316.409 190.734C316.772 191.076 317.106 191.447 317.409 191.844L319.939 194.974C322.049 197.634 324.939 201.334 328.119 205.434C331.299 209.534 334.119 213.274 336.169 215.994L338.569 219.234C338.878 219.619 339.152 220.03 339.389 220.464C339.02 220.128 338.685 219.756 338.389 219.354L335.859 216.264C333.739 213.604 330.859 209.904 327.679 205.794C324.499 201.684 321.679 197.964 319.619 195.244L317.239 191.964C316.922 191.582 316.644 191.17 316.409 190.734Z" fill="#EBEBEB"/>
<path d="M339.02 219.594C339.528 219.453 340.046 219.349 340.57 219.284L344.83 218.604C348.42 218.024 353.38 217.204 358.83 216.144C364.28 215.084 369.19 214.014 372.74 213.204L376.95 212.254C377.456 212.109 377.975 212.012 378.5 211.964C378.012 212.162 377.51 212.326 377 212.454C376 212.734 374.59 213.124 372.83 213.564C369.3 214.464 364.39 215.614 358.93 216.664C353.47 217.714 348.5 218.484 344.93 218.974C343.12 219.214 341.66 219.384 340.64 219.494C340.104 219.579 339.561 219.612 339.02 219.594Z" fill="#EBEBEB"/>
</svg>
